<?xml version="1.0" encoding="UTF-8" standalone="no"?>
<!-- Created with Inkscape (http://www.inkscape.org/) -->

<svg
   xmlns:dc="http://purl.org/dc/elements/1.1/"
   xmlns:cc="http://creativecommons.org/ns#"
   xmlns:rdf="http://www.w3.org/1999/02/22-rdf-syntax-ns#"
   xmlns:svg="http://www.w3.org/2000/svg"
   xmlns="http://www.w3.org/2000/svg"
   xmlns:sodipodi="http://sodipodi.sourceforge.net/DTD/sodipodi-0.dtd"
   xmlns:inkscape="http://www.inkscape.org/namespaces/inkscape"
   width="960"
   height="1171"
   viewBox="0 0 253.99999 309.82709"
   version="1.1"
   id="svg8"
   inkscape:version="0.92.2 (5c3e80d, 2017-08-06)"
   sodipodi:docname="hero-portfolio.svg">
  <defs
     id="defs2" />
  <sodipodi:namedview
     id="base"
     pagecolor="#ffffff"
     bordercolor="#666666"
     borderopacity="1.0"
     inkscape:pageopacity="0.0"
     inkscape:pageshadow="2"
     inkscape:zoom="0.35"
     inkscape:cx="-102.85714"
     inkscape:cy="560"
     inkscape:document-units="mm"
     inkscape:current-layer="layer1"
     showgrid="false"
     units="px"
     inkscape:window-width="1920"
     inkscape:window-height="1001"
     inkscape:window-x="-9"
     inkscape:window-y="-9"
     inkscape:window-maximized="1" />
  <metadata
     id="metadata5">
    <rdf:RDF>
      <cc:Work
         rdf:about="">
        <dc:format>image/svg+xml</dc:format>
        <dc:type
           rdf:resource="http://purl.org/dc/dcmitype/StillImage" />
        <dc:title></dc:title>
      </cc:Work>
    </rdf:RDF>
  </metadata>
  <g
     inkscape:label="Layer 1"
     inkscape:groupmode="layer"
     id="layer1"
     transform="translate(0,12.82711)">
    <path
       id="path825"
       d="m 4.7654194,254.5642 c -0.7669018,-0.31964 -2.2001138,-1.63382 -3.1820658,-2.92101 -1.62186201,-2.12649 -1.75499881,-2.71333 -1.45682941,-6.4261 0.3040129,-3.78578 3.14495261,-11.00181 7.42984031,-18.87123 0.543898,-0.99884 1.332284,-2.46855 1.751625,-3.26583 a 37.93175,37.93175 0 0 1 2.2280325,-3.49497 c 0.806184,-1.1249 1.465422,-2.33141 1.465422,-2.68296 4.021373,-5.8095 0.184058,0.17087 3.88179,-5.83772 2.211476,-0.79054 2.293378,-1.94183 3.575958,-3.76002 l 1.589038,-2.08355 -1.429513,-0.68316 a 25.044262,25.044262 0 0 0 -2.56946,-1.0473 c -1.932623,-0.61721 -1.269096,-1.95746 1.833828,-3.71184 l 2.968569,-1.67832 -2.808429,-1.83598 c -3.640074,-2.37927 -7.692741,-6.47518 -7.692741,-7.77464 0,-0.56107 1.245768,-1.80132 2.768244,-2.7566 10.176299,-6.38376 19.377706,-12.8295 19.377706,-13.57463 8.719783,-4.71589 0.77765,0.31873 9.11888,-5.14843 3.761558,-2.467 8.354436,-5.47145 10.206374,-6.67612 1.851939,-1.20466 3.903576,-2.18171 4.55944,-2.17036 1.582592,0.0276 1.525236,0.0703 -10.322328,7.74243 -5.815329,3.76554 -6.897908,4.72417 -6.60586,5.84019 0.505544,1.93261 5.633728,5.90491 9.82352,7.60775 l 3.612155,1.46818 7.755314,-5.3147 c 4.26403,-2.92315 8.543387,-5.72636 9.506939,-6.22946 0.963552,-0.5031 1.898571,-1.10006 2.077412,-1.32675 0.178842,-0.22671 1.704379,-1.31143 3.389441,-2.41087 l 3.063654,-1.99888 -2.722841,-0.81569 a 23.732537,23.732537 0 0 1 -5.460406,-2.69953 c -1.505908,-1.03593 -3.014575,-1.88353 -3.353244,-1.88353 -0.338668,0 -1.03503,-0.86661 -1.548238,-1.92586 l -0.932572,-1.92588 -2.079858,1.2648 c -1.143924,0.69575 -2.07987,1.56204 -2.07987,1.92587 0,0.36382 -0.586229,0.66077 -1.302823,0.66077 -2.162688,0 -1.485664,-1.14485 2.108392,-3.56491 2.504729,-1.68721 3.499875,-2.06514 3.745291,-1.4237 0.73838,1.92925 3.913396,4.98891 5.177263,4.98891 0.739609,0 1.344852,-0.2454 1.344852,-0.54205 0,-0.29664 3.103851,-2.55596 6.897606,-5.01714 l 6.897607,-4.47508 -0.392048,-3.28759 c -0.214737,-1.80807 -0.423956,-7.72833 -0.462912,-13.15591 -0.05797,-8.06086 0.145403,-10.44687 1.110798,-13.02707 2.15165,-5.75123 9.438538,-12.60312 13.403468,-12.60312 1.02091,0 1.85593,-0.25768 1.85593,-0.57242 0,-0.31474 0.81966,-0.91201 1.82156,-1.32706 1.42523,-0.59022 2.27804,-0.56261 3.91892,0.1273 2.77008,1.16571 1.99397,1.77187 -2.26668,1.77187 -1.91054,0 -3.4738,0.22272 -3.4738,0.49482 0,0.2721 4.03026,2.54369 8.95752,5.04812 4.92726,2.50442 9.11798,4.77233 9.31706,5.0386 0.7847,1.0519 3.69775,0.67274 6.36935,-0.82826 l 2.80936,-1.57891 -1.84059,-0.80343 c -1.01233,-0.44174 -3.53363,-1.54824 -5.60398,-2.45841 -2.07035,-0.91017 -4.05205,-1.65653 -4.4036,-1.65653 -0.35156,0 -1.8817,-0.55953 -3.40049,-1.24362 -1.5188,-0.68408 -3.19956,-1.39271 -3.7367,-1.57493 -0.53715,-0.18221 -0.0307,-0.35646 1.1292,-0.38468 1.99857,-0.0488 18.0442,5.88988 19.35685,7.16388 a 2.9756166,2.9756166 0 0 0 1.79826,0.60095 c 0.6488,0 2.53509,0.63715 4.19223,1.41602 2.92562,1.37523 3.03698,1.38044 3.90113,0.20124 0.48868,-0.66813 0.89176,-1.67187 0.89637,-2.23018 0.0274,-3.55049 10.88677,-16.16068 17.85368,-20.73209 1.76298,-1.1568 3.37442,-2.125871 3.58241,-2.153481 1.33933,-0.17701 2.79554,-0.53561 2.90628,-0.71537 0.0718,-0.11657 0.86324,-1.38413 1.75899,-2.81703 0.89575,-1.43289 2.6075,-4.65699 3.80572,-7.16509 1.19822,-2.50812 2.48296,-5.14567 2.85689,-5.86228 3.80604,-7.29333 10.29165,-19.9173 12.38133,-24.100958 1.43167,-2.8661 3.1422,-5.988652 3.80112,-6.939937 0.65894,-0.951274 1.19853,-2.13907 1.19853,-2.640325 0,-1.546395 3.97905,-4.809446 9.6864,-7.943048 6.03192,-3.313058 7.8998,-3.709709 7.8998,-1.682303 0,1.30651 -2.14735,9.883034 -4.64779,18.554352 -0.72274,2.507802 -1.56449,5.87853 -1.87371,7.490583 a 72.230179,72.230179 0 0 1 -2.22988,7.767576 c -0.91876,2.66089 -1.67248,5.44447 -1.67861,6.18868 -0.006,0.7442 -0.69942,3.54896 -1.5464,6.2356 -0.84698,2.68664 -1.72371,5.92455 -1.95041,7.19516 -0.38805,2.17435 -0.28254,2.35688 1.79764,3.10906 2.86855,1.03779 8.11852,5.669931 8.60045,7.590581 0.25308,1.00896 0.73838,1.40192 1.48812,1.2059 2.54982,-0.66691 6.60004,4.58706 6.60004,8.56119 0,1.39823 -0.29725,1.64917 -1.95409,1.64917 -2.73941,0 -2.43204,0.88962 0.80894,2.34368 1.5197,0.68133 3.27839,1.75163 3.90818,2.37866 0.62979,0.62702 1.58475,1.13993 2.1222,1.13993 1.14208,0 1.33473,2.63818 0.27025,3.70296 -0.5083,0.508 -0.39664,1.30681 0.39696,2.84156 0.66721,1.28994 1.1884,4.0904 1.31755,7.07706 0.1175,2.71824 0.0613,4.57569 -0.12577,4.12813 a 1.4249216,1.4249216 0 0 0 -1.20773,-0.81416 1.4175592,1.4175592 0 0 1 -1.20467,-0.81415 c -0.2037,-0.49327 -0.51169,-0.23651 -0.78163,0.65126 -0.71016,2.33601 -1.39548,1.71329 -1.84519,-1.67647 -0.22915,-1.72831 -0.84392,-3.70693 -1.36603,-4.39685 -1.14269,-1.51051 -1.33534,-0.18406 -0.26412,1.81697 0.39879,0.74666 0.73225,2.70597 0.739,4.35391 0.0123,2.93083 0.0818,3.03083 3.18145,4.57079 3.73148,1.85225 3.90143,2.75689 1.21509,6.46537 -1.07367,1.48352 -1.95408,2.90384 -1.95408,3.156 0,0.25215 -0.68623,1.20743 -1.52462,2.1225 a 30.180729,30.180729 0 0 0 -2.95691,4.06218 l -1.43197,2.39828 4.5852,2.72407 c 2.52191,1.49825 4.58521,2.9836 4.58521,3.30109 0,0.93319 -2.3765,0.66078 -3.23237,-0.37056 -0.43255,-0.5215 -2.15379,-1.7415 -3.82505,-2.7118 -1.67125,-0.9703 -3.18514,-1.94428 -3.36429,-2.16453 -0.17915,-0.22026 -1.05833,-0.72029 -1.9541,-1.11172 -1.31907,-0.57611 -2.49675,-0.40308 -6.18774,0.90864 -2.50779,0.89115 -4.66834,1.71788 -4.80117,1.84059 -0.13283,0.1227 1.11294,0.87734 2.76824,1.68168 1.6553,0.80434 3.00997,1.69702 3.00997,1.98384 0,1.02153 -2.42344,0.50003 -3.57104,-0.76691 -1.43535,-1.58597 -5.02419,-2.33693 -6.63409,-1.38841 -1.11908,0.65954 -1.10221,0.72917 0.27209,1.11539 0.80619,0.2267 1.46543,0.6709 1.46543,0.98748 0,0.31658 0.73347,0.57549 1.63014,0.57549 1.68905,0 20.53636,8.78482 21.23946,9.89991 0.21873,0.34694 0.59206,0.12484 0.82827,-0.4939 0.2362,-0.61875 0.35155,-1.18533 0.25338,-1.25957 -0.0982,-0.0742 -3.50908,-1.86421 -7.57985,-3.97782 -4.07076,-2.11361 -6.93134,-3.93732 -6.35615,-4.05236 0.57518,-0.11502 4.34562,1.54579 8.37866,3.69099 l 7.3332,3.90082 2.3262,-1.20436 c 4.02966,-2.086 4.20022,-2.81302 1.07981,-4.59594 -2.46332,-1.40744 -2.594,-1.59732 -1.23565,-1.79304 a 3.7161464,3.7161464 0 0 1 2.65689,0.81047 c 0.62549,0.56629 1.45621,1.0295 1.84611,1.0295 a 1.0663138,1.0663138 0 0 1 0.92581,0.48868 c 0.11934,0.26872 1.09638,0.96262 2.17128,1.5418 2.11668,1.14116 14.34432,8.5894 15.99011,9.73855 0.55494,0.38774 2.38693,1.56296 4.07108,2.61117 1.68413,1.04822 3.06212,2.12526 3.06181,2.39277 0,0.89943 -10.71744,9.1382 -13.35223,10.26496 l -4.55944,1.94949 c -3.89254,1.66358 -10.23337,3.46336 -13.83969,3.92658 -0.80495,0.10365 -2.56363,0.35186 -3.90818,0.55217 -2.64646,0.39297 -7.45684,0.82336 -15.14558,1.35529 l -9.77015,0.67488 c -2.68695,0.18621 -8.40228,0.62458 -12.70006,0.9746 -4.29777,0.35002 -10.16096,0.79176 -13.02706,0.98164 -4.45085,0.29511 -11.53434,1.13503 -16.28366,1.93262 -8.62562,1.44578 -20.43052,5.8592 -23.57609,8.81335 -1.14485,1.0752 -2.51915,1.95501 -3.05385,1.95501 -0.53469,0 -4.14131,2.14245 -8.01422,4.76098 -3.87291,2.61854 -12.51417,8.46917 -19.20347,13.0013 l -12.159847,8.24031 -3.895912,-1.94703 c -2.143059,-1.07092 -4.241016,-2.36209 -4.662814,-2.86917 -0.654635,-0.78869 -1.111101,-0.74636 -3.158147,0.29265 -1.316018,0.66813 -5.030944,2.45043 -8.25534,3.96094 -3.224408,1.51051 -9.189744,4.31833 -13.256532,6.2396 -4.066777,1.92126 -7.512659,3.49343 -7.656532,3.49343 -0.143873,0 -1.799486,0.75925 -3.678416,1.68721 -5.115303,2.52651 -13.310816,5.5012 -17.997874,6.53409 -5.169912,1.13809 -16.2060757,1.70009 -18.080704,0.92029 z m 4.9794071,-3.57963 c 0,-2.56271 -0.346031,-3.26214 -2.9271432,-5.91749 -1.6099084,-1.65653 -3.2793184,-2.89433 -3.7097087,-2.75076 -1.278591,0.4261 -1.8347557,3.81708 -1.1043526,6.72336 0.7178234,2.85046 3.1578339,4.72111 6.2742535,4.80946 1.307124,0.0371 1.46542,-0.27272 1.46542,-2.86457 z m 3.2566175,-5.80736 c 0,-0.13529 -0.512919,-0.64819 -1.139947,-1.13994 -1.033176,-0.81016 -1.056191,-0.78716 -0.245404,0.24542 0.85096,1.08502 1.385652,1.43014 1.385652,0.8939 z m 16.998438,-4.78154 c -0.592675,-1.01815 -0.67765,-0.95404 -0.695134,0.52149 -0.01159,0.92552 0.200013,1.90441 0.468744,2.17527 0.782554,0.78932 0.968144,-1.42308 0.22639,-2.69768 z m -2.926842,0.64421 c -0.21658,-0.21658 -0.370262,0.1684 -0.342042,0.85495 0.03073,0.75893 0.185589,0.91324 0.393579,0.39358 0.188047,-0.47027 0.165032,-1.03196 -0.05159,-1.24853 z m 5.210701,-1.9541 c -0.216569,-0.21657 -0.370263,0.16811 -0.342042,0.85496 0.03073,0.75893 0.184059,0.91324 0.393578,0.39358 0.188047,-0.47027 0.165044,-1.03196 -0.05159,-1.24854 z m 10.739211,-0.88348 c -0.41628,-1.043 -0.642669,-1.20558 -0.669974,-0.48591 -0.05496,1.44394 0.788386,3.58915 1.073686,2.73266 0.124232,-0.37058 -0.05739,-1.38167 -0.403399,-2.24644 z m 2.993103,-3.04555 c -0.162888,-0.62274 -0.290506,0.0402 -0.283143,1.47247 0.007,1.43228 0.140499,1.94243 0.296337,1.13227 a 7.1169387,7.1169387 0 0 0 -0.01287,-2.60474 z m -19.011119,0.66813 a 20.241862,20.241862 0 0 1 2.159012,-2.64799 c 0.95925,-1.00221 1.346382,-1.9633 1.064167,-2.6437 -0.380083,-0.91478 -0.490831,-0.92797 -0.782868,-0.0921 -0.505857,1.45713 -2.570689,3.25692 -3.7367,3.25692 -1.196376,0 -2.228948,-2.35717 -1.781375,-4.06861 0.170551,-0.65249 1.019992,-1.55806 1.887521,-2.01269 1.573699,-0.82457 1.574314,-0.82826 0.268418,-2.01084 -1.276144,-1.15497 -1.351611,-1.13503 -3.020407,0.84943 l -1.711439,2.03415 -1.667567,-1.31171 c -0.917233,-0.72151 -2.795861,-1.49211 -4.175067,-1.71267 -2.638179,-0.4218 -3.294344,-1.75317 -1.69334,-3.43577 0.665672,-0.69881 0.517196,-0.7669 -0.81416,-0.37517 -1.96329,0.57825 -1.520634,0.10215 -3.2210235,3.47503 -0.785626,1.55713 -1.261107,2.99832 -1.057117,3.20262 0.204,0.20431 0.37119,0.0307 0.37119,-0.38867 0,-0.99638 2.7756065,-0.98165 3.7778015,0.0218 0.429474,0.42946 0.781638,0.55217 0.781638,0.27086 0,-0.2813 1.172458,0.41782 2.605356,1.55284 1.432899,1.13503 2.605345,2.39277 2.605345,2.79156 0,0.3988 0.950972,1.709 2.111766,2.90722 1.654696,1.70714 2.465471,2.09551 3.745291,1.79303 0.89852,-0.21227 1.926489,-0.86845 2.284787,-1.45836 z m 4.627544,0.005 c -0.216581,-0.21658 -0.370262,0.16811 -0.342042,0.85495 0.03072,0.75864 0.185589,0.91325 0.393579,0.39358 0.188047,-0.47026 0.165044,-1.03195 -0.0516,-1.24853 z m 24.510494,-2.41393 c 0.166876,-0.87243 0.0589,-1.97157 -0.239897,-2.44246 -0.346031,-0.54573 -0.546646,0.0307 -0.552176,1.58628 -0.01159,2.79156 0.348488,3.18115 0.792687,0.85618 z m -41.849131,-0.53074 c -0.0081,-1.18503 -0.13069,-1.27859 -0.641452,-0.48836 -0.815992,1.26295 -0.815992,1.95408 0,1.95408 0.358309,0 0.646971,-0.65954 0.641452,-1.46541 z m 24.761115,-2.97223 c 9.09219,-4.7567 13.997057,-7.66913 15.890411,-9.43548 1.382892,-1.28841 2.106548,-1.57737 2.71026,-1.07643 0.511991,0.42487 0.968758,0.44819 1.207727,0.0613 0.684397,-1.10712 2.682968,-0.0645 3.52565,1.84059 0.89299,2.01729 0.521498,4.65668 -0.992387,7.08043 -1.046984,1.67432 -0.626715,2.75137 0.596351,1.5283 a 2.8222344,2.8222344 0 0 1 1.695798,-0.7706 c 1.12644,0 6.573663,-3.37809 6.606788,-4.09714 0.01322,-0.28314 -0.618437,-1.38382 -1.403751,-2.44553 -1.086567,-1.46971 -1.519717,-3.21336 -1.814512,-7.30099 -0.212894,-2.95383 -0.850357,-6.25002 -1.416644,-7.32462 a 34.596298,34.596298 0 0 1 -1.856842,-4.51251 c -1.229212,-3.80173 -3.801431,-7.07184 -7.787524,-9.8999 -4.160342,-2.95169 -5.267767,-3.49099 -3.987947,-1.94152 0.8114,0.98165 0.752188,1.28841 -0.488362,2.5305 l -1.411125,1.41112 -1.398232,-1.39823 c -1.283495,-1.28351 -1.312342,-1.48413 -0.353393,-2.44339 0.574878,-0.57486 0.879494,-1.47614 0.677337,-2.00316 -0.466275,-1.2154 -1.531056,-1.25068 -1.531056,-0.0509 0,1.05006 -1.387195,1.69794 -3.635784,1.69794 -1.846106,0 -2.055313,-1.12122 -0.435295,-2.35012 1.005582,-0.76354 0.815691,-0.86784 -1.612656,-0.88594 -1.519716,-0.0116 -3.602033,0.49574 -4.649017,1.13259 -2.426816,1.47584 -6.605257,6.45923 -6.595448,7.86452 0.0058,0.72949 1.720343,1.79764 5.299675,3.30201 3.198935,1.34425 5.408255,2.671 5.587096,3.35478 0.296337,1.13319 3.468896,2.18232 4.084261,1.34976 0.180082,-0.24326 1.185338,-0.81998 2.233865,-1.28166 1.84948,-0.81445 2.002559,-0.73624 5.11223,2.55689 2.654748,2.81272 3.030529,3.49434 2.186618,3.96676 -1.552227,0.86876 -5.572986,5.26869 -5.991724,6.5568 -0.337439,1.04299 -0.616594,0.99729 -3.20508,-0.51936 a 21.872316,21.872316 0 0 0 -5.981904,-2.22711 c -5.513786,-0.99269 -12.577353,-3.71186 -12.613237,-4.85547 -0.03073,-0.97582 -2.321297,-3.63516 -3.132373,-3.63516 -0.365972,0 -1.340875,0.95251 -2.166374,2.11667 a 23.651551,23.651551 0 0 1 -3.299875,3.63823 c -0.990231,0.83808 -1.812055,1.86391 -1.826779,2.27988 -0.01472,0.41597 -0.893906,1.77095 -1.954084,3.01151 -2.284485,2.67253 -2.611188,4.3444 -0.644211,3.29127 0.972444,-0.5215 2.254722,-0.36044 5.279721,0.65862 6.57888,2.21639 9.732111,4.91254 12.418453,10.61989 0.981639,2.086 1.600076,2.81119 1.83384,2.15288 0.193867,-0.54636 2.551048,-2.14368 5.237692,-3.54927 z m -5.094132,-5.42422 c -2.614249,-2.5983 -4.024759,-4.52692 -4.024759,-5.50335 0,-1.67616 3.606021,-4.82633 5.524534,-4.82633 1.450684,0 9.43669,7.76114 9.448342,9.18085 0.0046,0.5715 -0.504628,1.48872 -1.131344,2.03845 -1.035332,0.90772 -4.965911,3.11059 -5.550296,3.11059 -0.132824,0 -2.052554,-1.80009 -4.266175,-3.9999 z m 8.498912,0.231 c 1.059263,-0.90926 1.060793,-1.07369 0.02238,-2.83206 -1.100364,-1.86267 -2.124345,-2.44859 -2.124345,-1.21509 0,0.3583 -0.667516,0.65126 -1.483508,0.65126 a 6.2110628,6.2110628 0 0 0 -2.972245,1.043 c -1.407438,0.98594 -1.428609,1.10957 -0.38683,2.26086 1.071216,1.1838 1.13779,1.17275 2.368218,-0.39144 0.696363,-0.88532 1.684448,-1.60959 2.195824,-1.60959 1.146684,0 1.219391,2.03262 0.115711,3.22103 -0.661696,0.71292 -0.631017,0.7798 0.162888,0.35677 a 14.415482,14.415482 0 0 0 2.101956,-1.48567 z m -8.61548,-3.85205 c 0,-0.81875 0.190493,-0.91692 0.731319,-0.3761 0.524269,0.52427 1.159576,0.53623 2.243986,0.042 1.965133,-0.89545 2.367002,-2.04858 1.23473,-3.54344 -0.852502,-1.12521 -0.912931,-1.08687 -0.932259,0.58807 -0.01693,1.47093 -0.311978,1.7912 -1.649166,1.7912 -1.27676,0 -1.612054,-0.31628 -1.552842,-1.46542 0.05739,-1.11539 0.147247,-1.19116 0.374865,-0.31781 0.286819,1.09976 1.503149,0.98655 1.503149,-0.13957 0,-1.00619 -1.993968,-1.31909 -3.282379,-0.51537 a 2.8222344,2.8222344 0 0 0 -0.495434,4.26189 c 1.100364,1.10036 1.823718,0.97121 1.823718,-0.32579 z m 16.590135,-1.17246 c 0.41628,-2.49767 2.64124,-5.15364 3.745894,-4.47016 0.278552,0.17239 0.52733,-0.2172 0.552176,-0.86508 0.04081,-1.05189 0.105856,-1.0384 0.605556,0.12454 0.508003,1.18197 0.564142,1.19209 0.605557,0.10864 0.02516,-0.65678 0.39388,-1.07796 0.819366,-0.93624 0.834705,0.27823 3.134517,-1.71328 3.134517,-2.71426 0,-0.33744 0.586229,-0.56659 1.302835,-0.5126 0.997593,0.0751 1.300376,0.56138 1.292701,2.07649 -0.0081,1.51512 -0.157369,1.7504 -0.64144,1.00128 -0.523643,-0.81047 -0.634693,-0.75495 -0.651261,0.32579 -0.01658,1.08072 -0.127618,1.13502 -0.651261,0.32578 -0.535307,-0.82826 -0.632861,-0.79758 -0.64144,0.20124 -0.0058,0.6482 -0.303086,0.99699 -0.661394,0.7758 -0.358298,-0.22117 -0.651261,-0.0432 -0.651261,0.39573 0,0.43898 -0.177311,0.6212 -0.39388,0.40432 -0.216581,-0.21689 -1.0519,0.31597 -1.855927,1.1835 -0.804027,0.86753 -1.652853,1.38688 -1.885678,1.15404 -0.232835,-0.23283 -0.423642,-0.0328 -0.423642,0.44482 0,0.47762 -0.190204,0.67825 -0.422726,0.44573 -0.232523,-0.23254 -1.14055,0.37824 -2.017899,1.35712 l -1.595172,1.77924 0.434066,-2.60536 z m -26.351082,0.48838 c -0.0058,-0.80618 0.283144,-1.46541 0.641441,-1.46541 0.815992,0 0.815992,0.69113 0,1.95408 -0.511376,0.78992 -0.634078,0.69636 -0.642055,-0.48867 z m -3.918613,-1.46634 c 0,-0.76231 0.434378,-1.30282 1.046682,-1.30282 0.686844,0 0.910787,0.3543 0.651261,1.03041 a 6.6567918,6.6567918 0 0 0 -0.395422,1.30284 c 0,0.1497 -0.292952,0.2724 -0.651261,0.2724 -0.358297,0 -0.65126,-0.58623 -0.65126,-1.30283 z m 3.917999,-1.46541 c 0.01473,-1.19639 1.154359,-2.79801 1.642419,-2.30994 0.56966,0.56967 -0.284987,3.12409 -1.04484,3.12409 -0.335294,6.1e-4 -0.603098,-0.36566 -0.597579,-0.81354 z m 39.110034,-6.35003 c 0,-1.85992 0.122702,-2.06974 0.663841,-1.13994 a 2.0896805,2.0896805 0 0 1 0,2.27988 c -0.541753,0.9298 -0.663841,0.71997 -0.663841,-1.13994 z m -6.433778,-9.60879 c 0.14756,-1.28258 0.622426,-1.85041 1.671567,-1.99948 1.819416,-0.2583 1.864205,0.51167 0.137426,2.36514 -1.735984,1.86329 -2.058084,1.79826 -1.809909,-0.36566 z m -5.266527,0.40493 -1.564505,-0.59881 1.550998,-1.65099 1.551009,-1.65101 0.484988,1.81358 c 0.601266,2.24829 0.0046,2.86335 -2.02249,2.086 z M 39.052813,197.6487 c 0,-0.48193 0.586229,-1.40651 1.302823,-2.05533 1.260504,-1.14085 1.302835,-1.13779 1.302835,0.0945 0,1.2924 -1.135031,2.83666 -2.084473,2.83666 -0.286517,0 -0.521498,-0.39419 -0.521498,-0.87612 z m -27.614345,33.62017 c -0.216569,-0.21657 -0.370262,0.16841 -0.342042,0.85496 0.03073,0.75893 0.185601,0.91323 0.393579,0.39358 0.188047,-0.47028 0.165044,-1.03196 -0.0516,-1.24854 z m 4.59718,-0.33927 c -0.180685,-0.44789 -0.328546,-0.0813 -0.328546,0.81414 0,0.89545 0.147861,1.26204 0.328546,0.81415 a 2.5136291,2.5136291 0 0 0 3.01e-4,-1.62829 z m 34.485249,0.33927 c -0.21658,-0.21657 -0.370262,0.16841 -0.342042,0.85496 0.03073,0.75893 0.185589,0.91323 0.393579,0.39358 0.188348,-0.47028 0.165044,-1.03226 -0.05125,-1.24854 z m -40.9957125,-0.9909 c -0.180685,-0.44789 -0.328546,-0.0813 -0.328546,0.81414 0,0.89545 0.147861,1.26204 0.328546,0.81415 a 2.5136291,2.5136291 0 0 0 0,-1.62829 z m 18.1530985,0.7485 c 0.528246,-1.66482 -0.390819,-2.73175 -1.866048,-2.16576 -1.083495,0.41566 -1.474615,2.27681 -0.651562,3.09985 0.862311,0.86232 2.092125,0.40739 2.51761,-0.93409 z m 56.683049,-0.52979 c -0.464442,-0.75158 -2.966111,-0.99729 -2.966111,-0.29142 0,0.22915 0.512907,0.79575 1.139935,1.25773 1.223681,0.90496 2.549217,0.204 1.826176,-0.96631 z m -70.966008,-1.18227 c -0.216569,-0.21658 -0.370263,0.16842 -0.342042,0.85495 0.03072,0.75894 0.185589,0.91325 0.393578,0.39358 0.188047,-0.47026 0.165044,-1.03195 -0.05159,-1.24853 z m 75.162235,-1.07184 c 0,-0.4672 -0.806171,-1.22153 -1.791196,-1.67616 -2.214224,-1.02183 -7.524322,-2.65965 -7.783233,-2.40074 -0.284674,0.28469 2.4259,2.71978 5.014989,4.50607 2.341228,1.6148 4.55944,1.40621 4.55944,-0.42947 z m -7.380449,0.52887 c 0.105276,-0.33591 -0.742368,-1.26356 -1.883846,-2.06177 -2.745229,-1.91973 -3.913385,-0.55831 -1.411113,1.64426 1.668193,1.46849 2.914262,1.62585 3.294658,0.41751 z m -26.096158,-2.06268 c -0.216569,-0.21659 -0.370263,0.1681 -0.342042,0.85494 0.03072,0.75894 0.185589,0.91325 0.393578,0.39358 0.18836,-0.46996 0.165044,-1.03196 -0.05125,-1.24822 z m 3.5146,-1.51758 c 0,-0.69543 -0.292952,-1.26416 -0.65126,-1.26416 -0.358298,0 -0.651261,0.75003 -0.651261,1.66695 0,0.94545 0.281914,1.49241 0.651261,1.26418 0.359526,-0.22117 0.651573,-0.97122 0.651573,-1.66665 z m 33.725096,0.97859 c 1.854083,-1.29854 1.822477,-1.82218 -0.174552,-2.89064 -1.415415,-0.75741 -1.789364,-0.71661 -2.936349,0.32148 -1.23044,1.11356 -1.245164,1.26571 -0.231003,2.38632 1.316028,1.45407 1.511739,1.46481 3.341904,0.18406 z m -70.852814,-1.10282 c 0,-0.76292 -0.948816,-0.57303 -1.221223,0.24541 -0.134366,0.40309 0.08557,0.62273 0.488361,0.48837 0.402785,-0.13437 0.732862,-0.46506 0.732862,-0.73378 z m 54.704107,-1.17736 c 0.0058,-0.19971 -1.299461,-1.28627 -2.900152,-2.41424 -1.922188,-1.35498 -3.061822,-1.80562 -3.357545,-1.32738 -0.245404,0.3988 -0.182215,0.56384 0.141728,0.36812 0.323944,-0.19571 1.604691,0.9203 2.845856,2.4799 1.539044,1.93261 2.41608,2.58387 2.758424,2.0458 a 3.3863744,3.3863744 0 0 0 0.511376,-1.1522 z m -57.310379,-0.12547 c 0,-0.76293 -0.948816,-0.57304 -1.221223,0.24541 -0.134366,0.40309 0.08556,0.62273 0.488361,0.48838 0.402785,-0.13437 0.732862,-0.46476 0.732862,-0.73348 z m -2.36975,-0.81385 c 0.206146,-0.53745 0.09206,-0.97704 -0.25585,-0.97704 -0.347863,0 -0.631006,0.43959 -0.631006,0.97704 0,1.25098 0.406761,1.25098 0.886856,0 z m 73.708166,-1.6099 c 2.141829,-1.42277 4.260656,-2.59523 4.70853,-2.60535 0.447874,-0.0104 0.814149,-0.25737 0.814149,-0.54911 0,-0.29173 0.952514,-1.03287 2.116683,-1.64671 a 66.12679,66.12679 0 0 0 5.69907,-3.66799 c 3.4152,-2.43295 5.75214,-3.3744 4.88216,-1.96636 -0.22302,0.36076 0.0528,0.83195 0.61353,1.04668 1.11662,0.42948 1.41111,2.20533 0.36812,2.20533 a 0.71721563,0.71721563 0 0 0 -0.65126,0.76477 c 0,0.42057 0.67825,0.12761 1.50743,-0.65126 0.82919,-0.77888 1.80991,-1.41633 2.17803,-1.41633 0.36812,0 1.20191,-0.58623 1.8501,-1.30283 0.6482,-0.71661 1.68384,-1.30283 2.30074,-1.30283 1.0341,0 3.09833,-1.7688 2.51548,-2.1541 -0.1405,-0.0921 -0.74973,-0.54573 -1.35376,-1.0065 -1.56971,-1.19638 -4.00574,0.14296 -3.44866,1.89765 0.45433,1.43106 -1.26356,1.83353 -1.91635,0.44879 -0.21105,-0.44787 -0.23774,-0.0386 -0.0589,0.90926 0.36075,1.91267 -1.24209,3.13206 -1.89151,1.43903 -0.7209,-1.87833 -0.37303,-2.79831 1.41111,-3.73701 l 1.7912,-0.94177 -1.6283,-0.34418 c -0.89576,-0.18928 -2.80076,-0.53408 -4.23335,-0.76692 -3.83058,-0.62089 -7.52095,-2.5032 -10.04685,-5.12481 -1.732307,-1.79794 -2.426814,-2.15225 -3.109669,-1.58535 -0.483469,0.40124 -1.091784,0.50124 -1.351913,0.22179 -0.26014,-0.27947 -0.101218,-0.64023 0.35308,-0.8022 a 5.469306,5.469306 0 0 0 1.628308,-1.08717 7.6727962,7.6727962 0 0 1 2.105334,-1.31909 c 0.83254,-0.33744 1.00894,-0.63776 0.48836,-0.83194 a 1.4252284,1.4252284 0 0 1 -0.81415,-1.2654 c 0,-0.52856 -0.280384,-0.78808 -0.62304,-0.57611 -0.342657,0.21198 -0.469046,0.78593 -0.280999,1.27614 0.188048,0.49021 -0.04452,0.87428 -0.516895,0.85343 -3.130529,-0.13744 -4.332436,1.19391 -3.121022,3.45753 0.582855,1.09086 -0.0291,1.69427 -5.050572,4.97512 -3.143109,2.05348 -6.154311,4.21126 -6.691762,4.79503 a 6.3214981,6.3214981 0 0 1 -2.605356,1.48811 c -0.895749,0.23468 -3.038807,1.31909 -4.762826,2.41056 -2.617925,1.65653 -3.10108,2.26668 -2.931132,3.69866 0.341729,2.87868 8.65475,7.04762 14.54739,7.29579 0.72427,0.0307 3.067642,-1.10865 5.210701,-2.53173 z m 3.715842,-24.49178 c 0.618437,-0.64757 1.303136,-0.99852 1.521247,-0.78009 0.218111,0.21841 -0.287746,0.74819 -1.124295,1.17705 -1.454673,0.74574 -1.472168,0.72825 -0.397265,-0.39726 z m 3.27226,26.17224 c 1.4783,-1.12215 1.44179,-1.34977 -0.402474,-2.55934 -1.377687,-0.90281 -1.692123,-0.90557 -2.94494,-0.0279 l -1.402835,0.98165 1.479832,1.23412 c 1.762048,1.47062 1.814199,1.47646 3.270097,0.37118 z m 4.94964,-3.3965 1.49426,-1.04637 -1.73323,-0.89913 c -1.24791,-0.64728 -2.0817,-0.71261 -2.97746,-0.23314 -1.5375,0.82305 -1.55529,1.21755 -0.10435,2.31884 1.46112,1.10926 1.54272,1.10435 3.32104,-0.13989 z m 4.86376,-3.918 c -0.066,-0.31443 -0.66569,-0.9344 -1.33289,-1.37737 -0.9881,-0.65617 -1.48567,-0.61352 -2.68021,0.2218 l -1.46695,1.02735 1.44179,1.25129 c 1.26541,1.0973 1.60929,1.14055 2.79985,0.35002 0.74636,-0.49573 1.30344,-1.15865 1.23749,-1.47247 z m 3.71522,0.71508 c 1.19638,-1.44181 0.51598,-1.60868 -0.82827,-0.20124 -0.62701,0.65678 -0.88255,1.19423 -0.56812,1.19423 0.31443,0 0.94239,-0.44665 1.39547,-0.99269 z m -39.69779,-3.39896 c 1.431357,-1.61941 1.441792,-1.67064 0.109566,-0.54665 -2.002258,1.68904 -2.41455,1.01722 -0.586229,-0.95466 0.814461,-0.87826 1.463577,-1.85162 1.441792,-2.16268 -0.0451,-0.66752 -6.452179,-7.51236 -6.767229,-7.22983 -0.118714,0.1062 0.122713,0.8255 0.536222,1.59793 0.920294,1.72003 2.610574,8.07159 2.610574,9.81125 0,1.74642 0.791145,1.59273 2.654736,-0.51566 z m -2.003487,-2.12159 a 0.65126125,0.65126125 0 1 1 0.651272,0.65127 0.6534086,0.6534086 0 0 1 -0.651272,-0.65157 z m 44.617997,3.25662 c -0.51567,-0.83471 -0.97704,-0.83471 -0.97704,0 a 0.67488212,0.67488212 0 0 0 0.68991,0.65126 c 0.37947,0 0.50862,-0.29296 0.28713,-0.65126 z m -67.639139,-2.78051 c -0.17854,-0.44113 -0.31352,0.0776 -0.300326,1.1522 0.01322,1.0746 0.159212,1.43566 0.324256,0.80188 a 3.7262696,3.7262696 0 0 0 -0.02423,-1.95408 z m -5.210701,-2.60536 c -0.17854,-0.44081 -0.31352,0.0776 -0.300326,1.15222 0.01322,1.07459 0.159213,1.43565 0.324558,0.80188 a 3.7259629,3.7259629 0 0 0 -0.02423,-1.9541 z m -1.434742,-0.90249 c 0.281613,-1.33904 0.15338,-2.22712 -0.368118,-2.54952 -0.549718,-0.3399 -0.674878,-0.16719 -0.398796,0.55217 0.220871,0.57548 0.129149,1.99612 -0.203687,3.15691 -0.332837,1.1608 -0.348176,1.83691 -0.03374,1.50315 0.314436,-0.33377 0.766914,-1.53229 1.003726,-2.66241 z m 8.145832,0.98501 c -0.322726,-1.12583 -0.403712,-2.34337 -0.179468,-2.70596 0.232535,-0.3761 0.08348,-0.46015 -0.346946,-0.19296 -0.672432,0.41536 -0.466587,2.99125 0.355851,4.45759 0.632234,1.12675 0.717522,0.34849 0.170563,-1.55836 z m 28.295043,-0.0613 c 1.196376,-0.79759 1.672483,-0.55985 1.285953,0.64145 -0.214737,0.66997 -0.139884,0.86508 0.184059,0.47364 0.302471,-0.36658 3.334229,-2.53602 6.73778,-4.82111 7.248541,-4.86713 8.121588,-5.59784 5.867179,-4.91376 -1.508668,0.458 -1.554685,0.40922 -0.651261,-0.69175 0.891157,-1.08656 0.809858,-1.08073 -0.979494,0.0688 -4.592577,2.95046 -10.988616,7.58874 -9.994397,7.24701 0.59482,-0.2043 3.034819,-1.7366 5.422377,-3.40509 2.387547,-1.6685 4.514338,-2.86027 4.726316,-2.64829 0.469046,0.46903 0.900352,0.1227 -5.241379,4.20267 -2.796464,1.85807 -5.354887,3.2109 -5.685879,3.00629 -0.969373,-0.59911 -3.238519,0.93686 -3.182379,2.15379 0.04139,0.90251 0.122702,0.9295 0.423341,0.13988 a 3.5379162,3.5379162 0 0 1 1.088399,-1.45558 z m -41.712933,0.47852 c 0.206146,-0.53745 0.09206,-0.97705 -0.255838,-0.97705 -0.347874,0 -0.631018,0.4396 -0.631018,0.97705 0,1.25098 0.406773,1.25098 0.886856,0 z m 10.802713,-1.86053 c -0.627028,-0.57794 -0.713835,-0.47764 -0.38683,0.44819 a 10.684304,10.684304 0 0 1 0.496964,1.95408 c 0.04174,0.41842 0.214737,0.21688 0.386831,-0.44818 a 2.1755746,2.1755746 0 0 0 -0.497266,-1.95409 z m 6.232236,-0.67488 c -2.362086,-2.36209 -2.956291,-2.13877 -0.667829,0.2497 1.026126,1.07092 1.978014,1.83476 2.11667,1.69733 0.138667,-0.13743 -0.51475,-1.01355 -1.448841,-1.94703 z m 25.031991,-0.27334 2.194897,-1.83261 -1.866965,-1.73138 c -1.370626,-1.27091 -2.01115,-1.5197 -2.409633,-0.93593 -0.372419,0.54573 -0.482855,0.43867 -0.352477,-0.34143 0.105855,-0.63316 -0.644212,-1.80776 -1.69457,-2.65106 -1.036561,-0.83286 -1.753155,-1.90869 -1.592412,-2.39062 0.188047,-0.56444 1.873097,0.66599 4.732762,3.4557 l 4.440413,4.33275 1.924345,-1.6191 c 1.058335,-0.88962 2.194896,-1.6191 2.525587,-1.6191 0.330692,0 0.601255,-0.4396 0.601255,-0.97705 0,-0.53745 -0.221786,-0.97705 -0.492964,-0.97705 -0.899436,0 -6.679496,-5.52176 -6.675809,-6.37671 0.0023,-0.4623 1.104353,0.16197 2.446446,1.38718 1.342092,1.22523 3.30937,2.95967 4.368934,3.8542 l 1.92649,1.62585 2.470375,-1.63476 c 1.358661,-0.89912 2.470376,-1.83261 2.470376,-2.07464 0,-0.24204 -1.165709,-1.30222 -2.590017,-2.35595 -1.424307,-1.05374 -2.597066,-2.13601 -2.605356,-2.40473 -0.03258,-1.03134 1.680158,-0.39511 3.174101,1.17921 2.701368,2.84738 3.518276,2.99371 6.31474,1.13043 1.400389,-0.93288 2.668862,-1.79765 2.817332,-1.92158 0.26566,-0.22057 -2.751685,-3.27195 -5.628521,-5.69141 -1.354359,-1.13932 -1.554372,-1.14944 -3.071016,-0.15584 -0.892073,0.5847 -2.072194,1.06295 -2.622226,1.06295 -0.674878,0 -1.00005,0.62918 -1.00005,1.93261 0,1.27093 -0.449718,2.1719 -1.316018,2.63542 -1.428296,0.76446 -2.116681,0.5215 -4.435509,-1.56972 -1.497015,-1.34975 -1.530766,-1.34975 -2.442468,-0.10435 -0.772734,1.05681 -0.924584,1.08994 -0.924584,0.20125 0,-0.58469 0.293265,-1.24424 0.651261,-1.46573 0.357996,-0.22148 0.651261,-1.24055 0.651261,-2.26484 0,-2.50136 0.636234,-4.00941 1.47247,-3.49159 0.446958,0.27608 0.537452,-0.12271 0.259526,-1.14362 a 47.758341,47.758341 0 0 1 -0.84361,-4.98646 l -0.417196,-3.41889 -1.627694,1.62769 c -0.895134,0.89514 -1.880773,1.62769 -2.189992,1.62769 -0.309218,0 -0.573034,1.09915 -0.585614,2.44247 -0.01264,1.34332 -0.379155,3.0658 -0.814148,3.82781 -1.090556,1.90929 -4.977877,5.06774 -5.540789,4.50238 -0.420883,-0.42273 1.503148,-2.33817 3.489139,-3.47043 0.44573,-0.2543 0.869685,-1.34179 0.941767,-2.41669 0.243885,-3.6278 0.09206,-3.78057 -2.010838,-2.01207 -1.102207,0.92735 -2.274665,1.6872 -2.605356,1.6872 -0.330691,0 -0.601255,1.46542 -0.601255,3.25662 0,3.67657 -0.715991,4.64472 -5.7141,7.72617 -0.659237,0.40646 -0.611689,1.03534 0.231294,3.06765 0.582855,1.40682 1.135031,2.64032 1.229513,2.74094 0.296952,0.32179 4.245015,-2.11667 4.249305,-2.62591 a 0.58101215,0.58101215 0 0 1 0.635006,-0.48837 c 1.20957,0 -0.151236,2.00931 -2.012682,2.97194 -2.469146,1.27675 -2.346757,2.19276 0.582855,4.36158 a 53.93934,53.93934 0 0 1 4.706988,4.03549 c 1.253745,1.23196 2.437251,2.25503 2.629902,2.27404 0.192638,0.019 1.338104,-0.78992 2.546144,-1.79794 z m -6.478567,-12.03835 c 0,-0.51537 1.154359,-1.70071 2.564858,-2.6345 2.429274,-1.60775 2.532648,-1.80991 1.954095,-3.8278 -0.95343,-3.32411 -0.65402,-4.35852 0.47395,-1.63875 0.837163,2.01852 0.876433,2.79494 0.222099,4.37478 -0.437752,1.05649 -1.349768,2.09643 -2.024646,2.31085 a 6.5396078,6.5396078 0 0 0 -2.208705,1.37093 c -0.832862,0.83287 -0.981651,0.83962 -0.981651,0.0438 z m -2.193366,-1.44517 a 8.9161132,8.9161132 0 0 1 -0.358911,-2.81212 c 0.05183,-1.69088 0.07919,-1.6783 1.016004,0.47028 0.591446,1.35651 0.730102,2.44092 0.358912,2.8121 -0.371179,0.37119 -0.762612,0.18959 -1.015691,-0.46996 z m 6.753119,-10.59228 c 0,-0.75586 3.924748,-3.60295 4.3625,-3.16489 0.193566,0.19356 -0.05519,0.75925 -0.552176,1.25773 -1.300991,1.30099 -3.809408,2.55719 -3.809408,1.90778 z M 29.64679,203.70387 c 0.515979,-0.42946 0.938393,-1.07551 0.938393,-1.43811 0,-0.36259 -0.586229,0.0859 -1.302823,0.99668 -0.716606,0.91079 -1.257733,2.34276 -1.204979,3.18176 0.08742,1.36572 0.125473,1.34301 0.364442,-0.2178 0.146632,-0.95894 0.688988,-2.09397 1.204967,-2.52222 z m 7.16664,2.13508 c -0.218413,-0.21841 -0.90281,0.13284 -1.521247,0.78011 -1.073674,1.12521 -1.057419,1.14269 0.396952,0.39695 0.83685,-0.42947 1.342707,-0.95895 1.124295,-1.17706 z m 86.10882,0.31475 c 0.61844,-0.47855 0.639,-0.85711 0.0831,-1.52708 -0.85374,-1.02858 -2.43787,-1.13718 -3.82199,-0.26197 -0.82397,0.5215 -0.77734,0.789 0.32579,1.86083 1.26142,1.22705 1.74856,1.2157 3.41337,-0.0718 z m -90.391865,-3.23207 c 0.016,-2.89372 -0.952815,-2.04429 -1.118161,0.98164 -0.10829,1.97894 0.02794,2.48725 0.478553,1.78783 0.34603,-0.53868 0.634078,-1.78446 0.639608,-2.76947 z m 95.451035,2.24275 c -0.20062,-0.20062 -0.72611,0 -1.16786,0.44481 -0.63836,0.64421 -0.56352,0.71813 0.36475,0.36474 0.64206,-0.2448 1.00374,-0.60893 0.80311,-0.80955 z m -10.7435,-0.64727 c 0.52579,-0.46015 5.53526,-3.84959 11.13217,-7.53046 l 10.176,-6.69238 -3.99561,-0.68439 c -5.33064,-0.91324 -10.16618,-3.30662 -11.87179,-5.87638 -0.76354,-1.15006 -1.6188,-1.88262 -1.90194,-1.62831 -0.28314,0.25431 -0.29388,0.0831 -0.0264,-0.38038 0.2675,-0.46353 0.13191,-1.2694 -0.30093,-1.7912 -1.21602,-1.46511 -2.06852,-1.12092 -1.20743,0.48775 0.68317,1.27644 0.50985,1.66021 -1.55621,3.44589 a 27.042526,27.042526 0 0 1 -4.16527,2.96028 49.00135,49.00135 0 0 0 -5.0972,3.39097 c -1.7912,1.34179 -3.52778,2.44093 -3.85694,2.44246 -0.32917,0.001 -1.11908,0.47242 -1.75347,1.04668 -0.63439,0.57426 -1.51113,0.9246 -1.94827,0.77888 -0.43713,-0.14572 1.29486,-1.60192 3.84928,-3.23636 2.55444,-1.63444 4.46006,-3.15539 4.2352,-3.38055 -0.49973,-0.49972 1.69303,-3.02225 2.62744,-3.02225 0.36812,0 1.3286,-0.61751 2.13231,-1.37246 0.80373,-0.75495 1.79151,-1.26234 2.19552,-1.12767 0.40402,0.13467 -0.88961,1.2654 -2.87623,2.51241 -1.9866,1.24699 -3.6146,2.48294 -3.61982,2.74646 -0.006,0.26351 0.94423,-0.13007 2.10871,-0.87428 1.16447,-0.74421 2.92101,-1.84059 3.90388,-2.43295 0.98288,-0.59236 1.78906,-1.59273 1.79121,-2.21976 0.006,-1.50007 -0.7433,-1.43841 -2.87348,0.23714 -0.96293,0.7574 -1.87125,1.25773 -2.01605,1.1114 -0.50371,-0.50371 0.48346,-3.12439 1.04606,-2.77652 0.63194,0.39051 3.03698,-0.76231 4.36927,-2.09428 0.73132,-0.73133 0.7261,-1.02215 -0.0307,-1.77924 -0.77366,-0.77366 -1.13717,-0.72795 -2.4891,0.31106 -0.8709,0.66936 -1.91636,1.22338 -2.32343,1.23136 -0.40708,0.008 -0.9384,1.33534 -1.18044,2.94984 -0.42486,2.83298 -0.63776,3.06367 -6.09878,6.61354 -7.13442,4.63736 -6.8884,4.39471 -6.04602,5.96842 0.55217,1.03348 0.48407,1.55375 -0.31198,2.3495 -0.5623,0.5623 -1.29455,1.02214 -1.62585,1.02214 -1.026127,0 -0.674891,1.11939 0.96171,3.06458 3.13636,3.7275 15.91341,6.62612 18.64638,4.22998 z m -15.98705,-12.81726 a 18.111995,18.111995 0 0 1 3.74529,-2.3581 c 0.98961,-0.40983 1.79917,-1.00281 1.79917,-1.31909 a 0.64113802,0.64113802 0 0 1 0.68992,-0.57241 c 1.12398,0 0.10829,1.11141 -2.82224,3.09004 -3.7367,2.5216 -5.9721,3.28053 -3.41061,1.15803 z m 24.7059,12.29237 c 1.30468,-0.50064 1.33627,-1.95317 0.0533,-2.44552 -0.94637,-0.36321 -2.93114,0.0828 -2.93114,0.65831 0,0.25921 1.4829,2.10011 1.73813,2.15778 a 6.6874683,6.6874683 0 0 0 1.13963,-0.37057 z M 23.211482,201.56879 c -0.806786,-1.555 -0.998521,-1.62341 -2.128636,-0.76048 -1.052816,0.80404 -1.097906,1.04301 -0.296024,1.56911 0.521498,0.34142 1.159564,0.48867 1.420621,0.32731 0.261056,-0.16135 0.670901,0.0239 0.910485,0.41198 0.875505,1.41665 0.954334,0.11131 0.09206,-1.54792 z m 6.650046,-1.98416 c -0.07177,-1.31633 -0.09206,-1.31909 -0.395724,-0.0831 a 7.4025366,7.4025366 0 0 1 -1.064167,2.27987 c -0.647272,0.84974 -0.595736,0.86048 0.395724,0.0831 a 3.0645784,3.0645784 0 0 0 1.064167,-2.27987 z m 101.035382,0.58929 c 0,-1.2519 -2.55565,-1.97127 -3.48515,-0.98164 -0.56567,0.60248 -0.54942,0.8706 0.0656,1.09606 a 1.4000736,1.4000736 0 0 1 0.81416,1.24424 c 0,0.74391 0.27793,0.79759 1.30252,0.24849 0.7166,-0.38346 1.30283,-1.10681 1.30283,-1.60745 z M 26.680992,199.89783 c 0,-0.66015 -1.983846,-1.55958 -2.438167,-1.10435 -0.163803,0.16382 -0.10458,0.61016 0.131607,0.99239 0.519654,0.84084 2.30656,0.92827 2.30656,0.11293 z m 109.723888,-0.67487 a 0.68592564,0.68592564 0 0 0 -0.17854,-0.94853 c -0.30432,-0.18805 -0.55218,0.0846 -0.55218,0.60648 -0.001,1.09668 0.204,1.19239 0.73193,0.3402 z m 9.29496,-2.48756 c -0.25953,-1.08564 -0.29634,-1.08564 -0.76875,0 a 3.2765527,3.2765527 0 0 0 0,2.27987 c 0.47241,1.08564 0.50922,1.08564 0.76875,0 a 5.8343559,5.8343559 0 0 0 0.001,-2.28172 z m -11.73743,1.38565 c 0.13406,-0.40217 -0.41536,-0.90341 -1.22031,-1.11416 -1.77923,-0.46506 -2.00072,-0.29174 -1.45406,1.13257 0.45708,1.18779 2.27711,1.17491 2.67498,-0.0203 z m 4.74964,-0.5715 c 0.4675,-0.56322 0.5307,-0.97704 0.14939,-0.97704 -0.36383,0 -0.8301,0.43958 -1.03625,0.97704 -0.47763,1.24485 -0.14601,1.24485 0.88686,0 z M 31.212525,192.98796 c 0.03072,-0.79176 2.937879,-3.57227 5.415003,-5.18156 1.21786,-0.79115 2.914261,-1.14546 5.2107,-1.08779 3.336374,0.0841 6.987184,-0.89299 6.987184,-1.87126 0,-0.27118 0.87918,-0.85894 1.954084,-1.30283 1.93508,-0.80158 2.717634,-2.60535 1.130126,-2.60535 -1.14208,0 -5.541705,-2.4167 -7.182593,-3.94561 -0.746971,-0.69605 -1.603149,-1.26541 -1.901933,-1.26541 -0.298795,0 -0.826113,-0.74022 -1.169999,-1.64517 -0.343886,-0.90496 -1.043007,-1.80501 -1.552227,-2.00072 -0.743296,-0.28529 -7.534455,3.52626 -8.863052,4.97419 -0.179143,0.1951 -2.524058,1.72647 -5.210701,3.40294 -2.686644,1.67647 -5.17819,3.27624 -5.536488,3.5551 -0.358297,0.27884 -1.897028,1.35282 -3.419504,2.38693 -1.522476,1.0341 -2.768244,2.10011 -2.768244,2.36914 0,0.26904 0.916305,1.18197 2.036612,2.02833 1.120306,0.84636 2.51884,1.97864 3.108442,2.51547 0.589603,0.53684 2.676835,1.75838 4.638281,2.71302 l 3.566137,1.73752 1.766048,-2.06176 c 0.971529,-1.13503 1.779231,-2.35595 1.792738,-2.71518 z m 120.527815,2.28172 c 0,-1.4329 -0.29297,-2.60536 -0.65126,-2.60536 -0.3583,0 -0.65126,1.17246 -0.65126,2.60536 0,1.43289 0.29296,2.60535 0.65126,2.60535 0.35829,0 0.65157,-1.17399 0.65157,-2.6072 z m -14.98116,0.57457 c 0,-0.35831 -0.29296,-0.47027 -0.65126,-0.24879 a 1.4267622,1.4267622 0 0 0 -0.65126,1.05405 c 0,0.35829 0.29297,0.47026 0.65126,0.24878 a 1.4267622,1.4267622 0 0 0 0.65157,-1.05588 z m 20.19186,-0.55954 a 7.6807721,7.6807721 0 0 0 -0.41628,-2.29583 c -0.62733,-1.63506 -1.35988,0.002 -1.02397,2.28969 0.30093,2.04949 1.44179,2.05532 1.44179,0.007 z m 5.2107,-0.99177 c 0,-1.25374 -0.29327,-2.27988 -0.65126,-2.27988 -0.358,0 -0.65126,1.02582 -0.65126,2.27988 0,1.25405 0.29326,2.27987 0.65126,2.27987 0.35799,0 0.65156,-1.02797 0.65156,-2.28171 z m -27.35665,0.97705 a 0.67488212,0.67488212 0 0 0 -0.68991,-0.65127 c -0.37946,0 -0.50861,0.29296 -0.28713,0.65127 0.51598,0.8347 0.97704,0.8347 0.97704,0 z m 7.57709,-2.49063 c 0.70249,-0.47425 2.47191,-1.64671 3.9318,-2.60535 8.29063,-5.44385 10.34411,-6.8473 10.63799,-7.27032 0.17914,-0.25707 0.98502,-0.81447 1.79119,-1.23902 2.19612,-1.15651 1.7961,-2.24644 -1.6418,-4.47417 -2.83328,-1.83567 -7.31449,-6.56783 -7.31449,-7.72372 0,-0.26136 -0.46567,-0.98993 -1.03503,-1.61879 -0.56936,-0.62887 -1.27216,-2.19521 -1.56205,-3.48024 -0.44634,-1.97925 -0.31903,-2.48265 0.83287,-3.28944 1.67156,-1.17092 1.07368,-2.00654 -0.74238,-1.03532 -0.72334,0.38713 -1.40804,1.47644 -1.52123,2.42067 -0.16934,1.41111 -2.00318,2.91825 -10.30209,8.4667 -5.55243,3.71185 -10.44993,7.04424 -10.88277,7.40223 -1.17338,0.97183 -2.15533,0.78685 -1.72862,-0.32548 0.23621,-0.61568 -0.008,-0.97704 -0.65955,-0.97704 -1.28504,0 -2.14735,-3.08145 -1.14177,-4.0861 a 2.6400162,2.6400162 0 0 0 0.68254,-1.74366 q -0.0512,-1.00619 -0.38008,-0.19541 a 1.4147983,1.4147983 0 0 1 -1.21417,0.81416 c -1.12214,0 -0.96078,3.89008 0.2175,5.23892 0.45585,0.5215 1.47645,2.26546 2.26821,3.87474 2.29706,4.66866 6.55188,6.88687 14.62931,7.62679 2.23938,0.20522 4.07106,0.62242 4.07106,0.92705 0,0.30461 -1.17244,1.29423 -2.60534,2.19857 -2.99832,1.89274 -3.16674,2.37589 -1.13995,3.26521 1.09393,0.48008 1.7274,0.39542 2.498,-0.33407 a 21.818939,21.818939 0 0 1 2.30962,-1.84059 z m 26.29431,0.86232 c 0,-1.25374 -0.29295,-2.27988 -0.65126,-2.27988 -0.3583,0 -0.65126,1.02582 -0.65126,2.27988 0,1.25405 0.29327,2.27987 0.65126,2.27987 0.358,0 0.65035,-1.02797 0.65035,-2.28203 z m 6.32059,-1.79335 c -0.15523,-0.80617 -0.28223,-0.14663 -0.28223,1.46542 0,1.61204 0.127,2.27005 0.28223,1.46541 a 9.2796291,9.2796291 0 0 0 0,-2.93113 z m -114.87322,2.41455 c -0.212279,-0.55218 -0.525486,-0.86539 -0.696049,-0.69482 -0.170563,0.17056 -0.117183,0.62304 0.119027,1.00495 0.642356,1.03932 1.017534,0.83716 0.577324,-0.31045 z m 120.9266,-0.91049 c 0,-1.05342 -0.29297,-2.09673 -0.65126,-2.31821 -0.38775,-0.23958 -0.65126,0.53592 -0.65126,1.91574 0,1.27492 0.29296,2.31823 0.65126,2.31823 0.35829,0 0.65064,-0.86233 0.65064,-1.91576 z m -36.80254,0.61354 c 0.22149,-0.3583 0.10957,-0.65127 -0.24879,-0.65127 a 1.4264554,1.4264554 0 0 0 -1.05404,0.65127 c -0.22149,0.35829 -0.10945,0.65126 0.24879,0.65126 a 1.4267622,1.4267622 0 0 0 1.05343,-0.65188 z m 41.36106,-1.7369 c 0,-2.76886 -0.60125,-2.55811 -1.06325,0.37272 -0.18682,1.18533 -0.0332,2.01544 0.37272,2.01544 0.37978,0 0.69053,-1.07368 0.69053,-2.38816 z m 6.51354,0.10863 c 0,-0.85341 -0.29327,-1.7326 -0.65126,-1.95408 -0.38838,-0.2399 -0.65126,0.5488 -0.65126,1.95408 0,1.4053 0.26288,2.19398 0.65126,1.9541 0.35738,-0.2221 0.65064,-1.10159 0.65064,-1.95471 z m 5.00854,-1.46541 c -0.16381,-0.62702 -0.29787,-0.11408 -0.29787,1.13994 0,1.25406 0.13406,1.76666 0.29787,1.13993 a 5.3484408,5.3484408 0 0 0 0,-2.27987 z m 6.06443,0.77581 c 0,-1.38043 -0.26381,-2.15502 -0.65126,-1.91574 -1.07982,0.66751 -0.71415,4.23335 0.43438,4.23335 0.11933,0 0.21718,-1.04301 0.21718,-2.31822 z m 5.86226,-0.28713 c 0,-1.07368 -0.29326,-1.9541 -0.65126,-1.9541 -0.35798,0 -0.65126,0.8795 -0.65126,1.9541 0,1.0746 0.29328,1.95409 0.65126,1.95409 0.358,0 0.65066,-0.88042 0.65066,-1.95501 z m -150.191936,0.81415 a 1.6595965,1.6595965 0 0 1 0.938393,-0.48836 c 0.24756,0 1.322162,-0.80925 2.388161,-1.79826 1.06601,-0.98901 2.404114,-1.94642 2.97316,-2.12742 1.082579,-0.34419 1.65101,-4.54011 0.695134,-5.13033 -0.279468,-0.17271 -1.341792,0.40187 -2.360242,1.27706 -1.018463,0.87521 -2.099499,1.5912 -2.40197,1.5912 -0.302471,0 -0.550031,1.18963 -0.550031,2.6437 0,1.45405 -0.253694,2.48693 -0.564142,2.29521 -0.310448,-0.19174 -0.422715,-1.0884 -0.249705,-1.99397 0.396036,-2.0722 -0.0291,-2.06085 -2.830517,0.0757 -2.138757,1.63137 -2.19827,1.78169 -1.158347,2.93113 1.15313,1.2743 2.30074,1.54057 3.119805,0.72305 z m 157.356436,-1.50314 c 0,-1.16234 -0.27118,-1.82495 -0.65126,-1.58997 -0.8482,0.52426 -0.8482,3.5824 0,3.5824 0.3583,0 0.65126,-0.89667 0.65126,-1.99397 z m -68.06706,0.68807 c 0.22148,-0.35831 0.10945,-0.65126 -0.24879,-0.65126 a 1.4267622,1.4267622 0 0 0 -1.05405,0.65126 c -0.22148,0.3583 -0.10956,0.65126 0.24879,0.65126 a 1.4264554,1.4264554 0 0 0 1.05405,-0.65126 z m 74.58121,-1.34117 c 0,-0.69544 -0.29296,-1.26418 -0.65126,-1.26418 -0.35831,0 -0.65127,0.75004 -0.65127,1.66696 0,0.94544 0.28192,1.49271 0.65127,1.26417 0.35737,-0.22149 0.65033,-0.97152 0.65033,-1.66695 z M 84.224509,188.16501 c -0.163816,-3.4235 -4.785528,-6.45402 -4.785528,-3.13789 0,1.46602 1.557444,4.25605 2.893404,5.18216 1.250683,0.86754 1.993968,0.0654 1.892437,-2.04427 z m -3.059051,-1.01815 c -0.201856,-0.5258 -0.117183,-1.11049 0.187734,-1.29885 0.461985,-0.28559 1.342406,1.01509 1.342406,1.98262 -9.28e-4,0.7025 -1.205895,0.16413 -1.531068,-0.68377 z m 19.023382,2.18753 c -1.40498,-0.88961 -2.09428,-0.66904 -1.2154,0.38991 0.44267,0.53346 1.09608,0.78991 1.45193,0.56996 0.39296,-0.24296 0.30031,-0.61966 -0.23653,-0.95987 z m 60.01635,0.49512 c 2.32866,-0.20644 8.63051,-0.53836 14.0038,-0.73776 5.3733,-0.1994 12.26169,-0.50126 15.30756,-0.67121 3.04586,-0.16994 10.21342,-0.48684 15.92998,-0.70555 5.71656,-0.21873 11.72515,-0.4672 13.35254,-0.55525 3.06917,-0.16596 15.54315,-3.43054 16.57173,-4.33704 0.32179,-0.28376 -0.66383,-1.01569 -2.1906,-1.62585 -1.52678,-0.61016 -7.45439,-3.4103 -13.1734,-6.22149 -5.71901,-2.8112 -10.51588,-5.1104 -10.66099,-5.1104 -0.37333,0 -10.71467,-4.8162 -16.89843,-7.86973 -5.97486,-2.95076 -7.4053,-3.26336 -4.23764,-0.92643 2.11299,1.55897 3.22931,2.81333 3.2517,3.65264 0.006,0.21474 -2.11514,1.79949 -4.71252,3.5189 -2.59738,1.71942 -4.8202,3.37442 -4.93891,3.6778 -0.11871,0.30339 -0.63531,0.55218 -1.14638,0.55218 -0.51107,0 -1.43106,0.58623 -2.04459,1.30282 -0.61352,0.71661 -1.30344,1.30284 -1.53382,1.30284 -0.23039,0 -2.58265,1.47952 -5.22881,3.28759 -2.64614,1.80807 -5.98374,4.05144 -7.41664,4.98523 -7.81389,5.0923 -9.44435,6.27088 -9.44435,6.82613 0,0.33559 0.21965,0.47978 0.48837,0.32027 0.26873,-0.15953 2.39276,-0.46016 4.72232,-0.66569 z m 32.24096,-5.63495 c -0.21474,-0.34696 0.52825,-1.18903 1.65009,-1.87127 2.82592,-1.71789 0.98777,-2.1857 -2.16637,-0.55218 -1.35898,0.70556 -2.66886,1.08197 -2.91212,0.83931 -0.40585,-0.40584 0.65555,-1.36418 2.05532,-1.85684 0.70556,-0.24818 -0.71138,-3.07348 -1.5418,-3.07348 -0.32363,0 -0.53315,0.80618 -0.46567,1.7912 0.10307,1.50744 -0.16166,1.82402 -1.67217,1.99766 -1.78935,0.20583 -3.18176,-1.34977 -2.1044,-2.35137 0.2724,-0.25338 0.6261,-0.0941 0.78624,0.35371 a 1.4328974,1.4328974 0 0 0 1.29331,0.81415 c 0.85894,0 0.87428,-0.15338 0.10864,-1.07705 -0.49082,-0.59236 -0.88532,-1.2519 -0.87459,-1.46541 0.0264,-0.53346 -1.61817,-0.13406 -3.75847,0.91262 -1.02398,0.50064 -1.94275,0.61844 -2.15471,0.27609 -0.46015,-0.74544 1.08441,-3.00476 2.94677,-4.30913 1.29823,-0.90924 1.43321,-0.88009 1.76237,0.37917 0.27762,1.06202 0.70034,1.27736 1.91053,0.97367 0.89299,-0.22424 1.55407,-0.10156 1.55407,0.28867 0,0.37333 0.80617,0.77151 1.79119,0.88471 1.30345,0.15 1.78169,0.56076 1.75593,1.50866 -0.0307,1.09423 0.38713,1.30283 2.60534,1.30283 1.82126,0 2.64064,0.28131 2.64064,0.90618 0,1.17184 -4.69197,4.1674 -5.21101,3.32687 z m -8.14122,-7.20284 c 0,-0.37947 -0.29328,-0.50862 -0.65126,-0.28713 -0.83472,0.51598 -0.83472,0.97705 0,0.97705 a 0.67488212,0.67488212 0 0 0 0.65126,-0.68992 z m 8.30902,-0.50923 c -3.84898,-1.6691 -6.99975,-3.38514 -7.0019,-3.81339 -0.002,-0.42824 0.80189,-1.2197 1.7869,-1.75837 6.31537,-3.45417 5.07757,-3.44129 12.12273,-0.12732 3.49712,1.64458 6.63163,2.99005 6.96846,2.99005 1.25098,0 0.55954,1.88261 -0.85342,2.32374 -0.80617,0.25155 -1.61204,0.6442 -1.7912,0.87305 -0.39572,0.50524 -3.78793,2.6891 -4.04929,2.6075 -0.10214,-0.0325 -3.33453,-1.42462 -7.18351,-3.09403 z m 35.76017,11.44508 c -0.17854,-0.44081 -0.31352,0.0776 -0.30033,1.15221 0.0132,1.07459 0.15921,1.43566 0.32426,0.80188 a 3.7259629,3.7259629 0 0 0 -0.0242,-1.95409 z m -175.9022,0.56507 a 2.6360282,2.6360282 0 0 1 1.445166,-1.2924 c 0.602182,-0.20861 2.706898,-1.56911 4.677237,-3.02287 1.970351,-1.45375 6.953132,-4.90271 11.074204,-7.66359 4.121085,-2.76088 7.638445,-5.18432 7.81637,-5.38218 0.177914,-0.19787 4.21218,-2.94311 8.962427,-6.09787 8.114238,-5.38862 11.004566,-7.6961 8.377439,-6.68746 -0.981651,0.3767 -6.578266,4.13088 -25.482011,17.09231 -6.908656,4.73705 -8.203502,5.67361 -9.179935,6.63961 -0.45279,0.44787 -1.035947,0.81415 -1.296388,0.81415 -0.260442,0 -1.434128,0.73286 -2.607501,1.6283 -1.173373,0.89545 -2.297668,1.62831 -2.496753,1.62831 -0.593591,0 -2.982065,2.20257 -2.982065,2.75015 0,0.8709 1.325838,0.55217 1.693955,-0.40616 z m 180.46409,-1.85531 c -0.18068,-0.44789 -0.32854,-0.0813 -0.32854,0.81414 0,0.89545 0.14786,1.26204 0.32854,0.81415 a 2.5136291,2.5136291 0 0 0 0,-1.62829 z m -128.81413,-0.22425 c 1.84518,-2.34583 1.75776,-5.89295 -0.25339,-10.29012 -1.54977,-3.3876 -5.85369,-8.45075 -8.365162,-9.8407 -0.981651,-0.54297 -1.063865,-0.94913 -0.495121,-2.44246 0.548489,-1.44179 0.498495,-1.79119 -0.255839,-1.79119 -0.515979,0 -1.251599,0.58622 -1.635056,1.30282 -0.472721,0.88318 -0.480083,1.30283 -0.02296,1.30283 a 0.65555595,0.65555595 0 0 1 0.674879,0.63102 c 0,1.08288 -1.949794,-0.0595 -2.029551,-1.18902 -0.06713,-0.95098 -0.10829,-0.94576 -0.368118,0.0389 a 2.4031938,2.4031938 0 0 1 -1.45407,1.478 c -1.47247,0.46751 -2.66517,3.05169 -2.652591,5.74785 0.0093,1.91728 1.801318,8.79065 1.901945,7.28873 0.02388,-0.36291 0.703098,-0.94914 1.508968,-1.30283 a 2.9780707,2.9780707 0 0 0 1.671567,-2.43418 c 0.280384,-2.43603 2.594921,-2.39277 5.261619,0.0984 1.60807,1.50315 2.02281,2.42191 2.02281,4.48337 0,1.99397 -0.28406,2.66885 -1.23073,2.91426 a 3.0651919,3.0651919 0 0 1 -2.058702,-0.18989 c -0.91539,-0.56567 -3.221034,0.60648 -3.23024,1.64242 -0.01345,1.51236 4.106362,4.00665 6.852512,4.14869 2.33816,0.12117 3.00814,-0.13651 4.15789,-1.59856 z m 134.02545,-1.72985 c -0.18069,-0.44787 -0.32855,-0.0813 -0.32855,0.81415 0,0.89545 0.14786,1.26203 0.32855,0.81416 a 2.5136291,2.5136291 0 0 0 3e-4,-1.62831 z m -130.69982,0.0859 c 0,-0.35829 -0.29296,-0.47026 -0.65126,-0.24877 a 1.4264554,1.4264554 0 0 0 -0.65126,1.05403 c 0,0.35831 0.29296,0.47027 0.65126,0.24879 a 1.4267622,1.4267622 0 0 0 0.65126,-1.05405 z m -20.645251,-5.32238 c 1.06201,-0.74452 1.085326,-0.99974 0.240186,-2.62866 -0.78071,-1.50468 -1.088085,-1.6639 -1.852854,-0.95895 a 15.619226,15.619226 0 0 1 -2.357181,1.6648 c -1.163251,0.662 -1.441792,0.65924 -1.441792,-0.0147 0,-0.46014 1.025825,-1.38688 2.279871,-2.06206 2.112392,-1.13749 2.279882,-1.45437 2.279882,-4.31773 v -3.09003 l -2.023116,1.88967 c -1.112631,1.03932 -2.320671,1.88967 -2.684498,1.88967 -0.736235,0 -0.325787,9.77996 0.462912,11.0558 0.319642,0.51751 1.010485,0.22639 2.192751,-0.92398 a 30.570626,30.570626 0 0 1 2.902297,-2.50381 z m 23.590191,2.74492 c 0.52733,-1.66173 -0.0921,-2.41362 -1.13502,-1.37307 -0.42396,0.42394 -0.98165,0.7709 -1.23842,0.7709 -0.75709,0 -0.12639,-5.46869 0.66078,-5.73098 0.39541,-0.13191 0.71874,-1.12184 0.71874,-2.20043 0,-1.41295 -0.36382,-2.05531 -1.30282,-2.30072 -0.71661,-0.18744 -1.30284,-0.59973 -1.30284,-0.91601 0,-0.81538 0.90466,-0.71292 1.82372,0.20615 0.60801,0.60801 0.78164,0.42701 0.78164,-0.81415 0,-1.02858 -0.77336,-2.213 -2.17588,-3.33207 l -2.17589,-1.7363 0.12977,2.13785 c 0.0715,1.17582 0.34296,2.48295 0.60371,2.90475 a 1.4417937,1.4417937 0 0 1 -0.17977,1.55438 c -0.44726,0.53898 -0.36228,1.18595 0.26965,2.05011 a 5.4263591,5.4263591 0 0 1 0.85895,2.9293 l -0.065,1.66665 -0.52151,-1.62831 c -0.4853,-1.51573 -0.5261,-1.52984 -0.58653,-0.20124 -0.0356,0.78501 0.22824,1.60836 0.58653,1.82955 0.35831,0.22117 0.65127,1.55774 0.65127,2.96947 0,2.28479 0.17425,2.56701 1.58444,2.56701 1.03165,0 1.73414,-0.4718 2.0136,-1.35191 z m 133.49537,-2.61117 c -0.23498,-0.74053 -0.0887,-1.24792 0.36014,-1.24792 0.41597,0 0.90249,0.55893 1.08103,1.2424 0.31413,1.20129 0.39543,1.19637 2.46363,-0.1629 1.17644,-0.77273 2.68787,-1.75439 3.35968,-2.18109 1.11816,-0.71077 1.12491,-0.77918 0.081,-0.81416 -0.62701,-0.0211 -1.13993,-0.3313 -1.13993,-0.6896 a 0.61935773,0.61935773 0 0 0 -0.57702,-0.65126 c -0.3175,0 -2.33141,-1.17246 -4.47877,-2.60536 -2.14735,-1.4329 -4.20635,-2.60534 -4.57938,-2.60534 a 1.0328764,1.0328764 0 0 1 -0.89482,-0.48838 c -0.11934,-0.26873 -2.47652,-1.85224 -5.23771,-3.5192 -4.19439,-2.53203 -5.14536,-2.88052 -5.77914,-2.11668 -0.4172,0.50248 -1.08901,0.92029 -1.49271,0.92827 -0.4037,0.008 -1.44487,0.56077 -2.31331,1.22707 l -1.57923,1.21386 3.8588,1.91636 c 2.12218,1.05404 5.61747,2.89432 7.76696,4.08948 2.14951,1.19515 4.78737,2.66118 5.86228,3.25722 1.42921,0.79269 2.009,1.64212 2.15901,3.16182 0.11293,1.14454 0.49082,1.90195 0.84054,1.68537 0.3497,-0.21657 0.45738,-0.95435 0.23958,-1.64058 z M 98.32801,179.28018 c 0,-1.6421 -2.566698,-4.85546 -3.878426,-4.85546 -0.374552,0 -0.681011,0.62211 -0.681011,1.38259 0,1.05557 0.198783,1.21755 0.841151,0.68438 1.111715,-0.92275 2.638166,1.41726 2.077099,3.18453 -0.279769,0.88195 -0.09206,1.26203 0.620277,1.26203 0.65954,0 1.02091,-0.58684 1.02091,-1.65653 z m 140.43438,-0.77089 c -0.21658,-0.21658 -0.37026,0.16841 -0.34204,0.85495 0.0307,0.75894 0.18406,0.91323 0.39358,0.39358 0.18805,-0.47028 0.16503,-1.03196 -0.0516,-1.24853 z m -74.6478,-0.50218 c 0.44605,-0.53745 1.16909,-0.97705 1.60715,-0.97705 0.43806,0 1.32676,-0.58622 1.97526,-1.30282 0.6485,-0.71661 1.48106,-1.30284 1.85009,-1.30284 0.36904,0 1.27645,-0.55217 2.01606,-1.22459 1.34087,-1.22124 6.38653,-4.81867 12.25494,-8.73788 1.70163,-1.13503 3.09188,-2.21761 3.08942,-2.40229 -0.002,-0.18467 -1.08012,-1.06875 -2.3949,-1.96329 -1.99397,-1.35896 -2.18295,-1.66788 -1.13503,-1.86666 0.69021,-0.13098 1.4016,-0.44204 1.58076,-0.69083 0.17914,-0.24878 2.67069,-1.26633 5.53648,-2.26116 2.8658,-0.99483 7.97312,-2.83266 11.35029,-4.08426 5.12052,-1.89887 6.40218,-2.15595 7.73047,-1.55101 1.55836,0.71016 1.5826,0.67672 1.15834,-1.58382 -0.23835,-1.27001 -1.1519,-3.74007 -2.03047,-5.48894 -0.87858,-1.74887 -1.60162,-3.57749 -1.60684,-4.06279 -0.005,-0.4853 -0.59266,-2.64094 -1.30497,-4.79044 l -1.29547,-3.90788 0.0865,3.25662 c 0.0475,1.7912 0.0485,3.587 0.002,3.9907 -0.10794,0.93288 -6.42733,3.68148 -7.26971,3.15998 a 1.6203307,1.6203307 0 0 1 -0.63193,-1.25773 c 0,-0.47702 -0.51414,-2.01575 -1.1424,-3.41889 l -1.14238,-2.55167 -4.39441,2.02464 c -2.76088,1.27216 -4.1674,2.25411 -3.78271,2.6434 0.33744,0.34051 0.80771,2.11176 1.0476,3.93548 l 0.43592,3.31643 -2.95445,1.73138 c -4.90824,2.87654 -5.65368,2.34338 -5.65368,-4.04438 0,-3.28238 -0.15338,-3.71523 -1.30283,-3.71523 -0.93226,0 -1.30283,0.43408 -1.30283,1.52738 0,0.83992 -0.28437,1.3513 -0.63224,1.13503 -0.88961,-0.54942 -1.55438,2.57008 -1.06724,5.00548 0.22425,1.12122 1.13811,2.99617 2.03078,4.16617 0.89269,1.16999 1.6231,2.43387 1.6231,2.80751 0,0.37364 0.73286,1.15988 1.6283,1.74672 1.5915,1.043 2.23663,2.87132 1.01233,2.87132 -0.33744,0 -1.89458,-1.57033 -3.45786,-3.48946 -2.03568,-2.49921 -3.07807,-4.54257 -3.67288,-7.20068 -0.77519,-3.46399 -1.85685,-4.46618 -2.55597,-2.36823 -0.17179,0.51507 0.009,0.68041 0.44788,0.40923 0.99913,-0.61752 0.93655,0.82306 -0.0783,1.80745 -0.44788,0.43438 -2.27987,1.63383 -4.07107,2.66549 -1.79121,1.03164 -3.40325,2.04918 -3.5824,2.26147 -0.6982,0.82826 -4.94535,3.75295 -6.02484,4.15114 -0.62703,0.23099 -1.13995,0.72242 -1.13995,1.09177 0,0.36935 -0.58621,0.67182 -1.30282,0.67182 -0.71661,0 -1.30283,-0.29297 -1.30283,-0.65126 a 0.63132155,0.63132155 0 0 1 0.60494,-0.65127 c 0.33253,0 0.99207,-0.37364 1.46542,-0.83041 0.47333,-0.45677 3.41551,-2.52068 6.53806,-4.58644 5.32144,-3.52012 7.09331,-5.00486 5.97362,-5.00486 -0.26167,0 -0.98164,0.4583 -1.6013,1.01876 -1.05804,0.95741 -1.15129,0.59543 -1.55285,-6.02486 -0.49819,-8.20933 -1.76942,-12.45771 -1.47462,-4.92694 0.10191,2.59738 -0.0445,4.72233 -0.32486,4.72233 -0.28039,0 -0.54727,-1.97832 -0.59298,-4.39686 -0.11657,-6.1724 -0.28344,-7.30836 -1.20129,-8.1851 -0.63592,-0.6077 -0.73132,-0.35738 -0.45033,1.1832 0.19602,1.07367 0.54758,4.88523 0.78164,8.46671 0.23406,3.58148 0.64973,7.74365 0.92428,9.24711 0.37609,2.05992 0.28069,2.81702 -0.38745,3.07348 -0.57518,0.22055 -0.90771,-0.16749 -0.94728,-1.10436 -0.0334,-0.79483 -0.42948,-6.13529 -0.88164,-11.86688 -0.77949,-9.89807 -0.82551,-10.11711 -0.91631,-4.35821 -0.0645,4.08274 -0.32087,5.92394 -0.78561,5.63681 -0.46475,-0.28714 -0.58286,0.50554 -0.36628,2.40411 0.17823,1.55683 0.39265,4.14961 0.47701,5.76165 0.1359,2.60535 0.19696,2.46057 0.54941,-1.30282 l 0.39634,-4.23336 0.30677,4.71435 c 0.20492,3.1646 0.0399,5.07635 -0.50217,5.81473 -0.44419,0.60494 -0.94054,0.96693 -1.10434,0.80403 -0.16382,-0.16289 -0.48899,-2.77928 -0.7249,-5.81472 -0.23589,-3.03543 -0.64972,-7.8636 -0.92029,-10.7294 l -0.49082,-5.21071 -0.0936,5.15672 c -0.17147,9.44835 -0.58653,6.1853 -1.77371,-13.94982 -0.22178,-3.76154 -0.5215,-6.9614 -0.66414,-7.1105 -0.49972,-0.51996 -1.04545,0.52365 -1.14147,2.18263 -0.10643,1.84059 -0.30247,1.89489 -3.84192,1.07368 -1.34333,-0.31198 -2.44246,-0.32302 -2.44246,-0.0242 0,0.29879 1.28136,0.73623 2.84708,0.96968 2.57345,0.38592 2.91795,0.65587 3.58485,2.80813 0.61598,1.98752 2.00563,15.13362 2.02864,19.1918 0.003,0.6482 0.30185,0.99576 0.66261,0.77305 0.8936,-0.55218 1.13687,0.46659 1.52186,6.37641 l 0.33038,5.07082 -2.58602,1.71144 c -1.524,1.00864 -2.4489,2.06852 -2.25226,2.58112 0.18406,0.48254 -0.45432,1.3743 -1.43659,2.00256 -3.68423,2.35717 -4.00879,3.1701 -2.58448,6.46689 1.31908,3.0563 5.11989,7.35316 8.89923,10.06495 3.87934,2.78358 4.71557,3.00292 5.91901,1.55284 z m 23.00735,-29.377 c -0.39695,-1.0341 1.21326,-2.86488 2.51977,-2.86488 1.09454,0 0.47119,2.5894 -0.78563,3.26184 -1.04974,0.5626 -1.39486,0.48377 -1.7326,-0.39727 z m -23.00735,-2.648 c 0,-3.61706 0.31291,-3.52226 0.89392,0.27149 0.26229,1.71206 0.17271,2.76825 -0.23498,2.76825 -0.3626,0 -0.65894,-1.36787 -0.65894,-3.03974 z m 27.07934,0.89239 c -0.29173,-1.00189 -0.34847,-2.00317 -0.12637,-2.22557 0.72917,-0.72919 1.15772,0.31136 0.90525,2.19612 l -0.24817,1.85071 -0.53039,-1.82157 z m 1.77157,-1.51266 c -0.0595,-2.10011 0.0402,-2.25012 0.91478,-1.37522 a 2.2955195,2.2955195 0 0 1 0.54511,2.35686 c -0.66997,2.11515 -1.38472,1.63353 -1.45896,-0.98164 z m 37.45105,30.9277 c -0.16259,-0.48776 -0.458,-0.19265 -0.68807,0.68807 -0.28345,1.08349 -0.19847,1.3378 0.28468,0.85434 a 1.6675724,1.6675724 0 0 0 0.40339,-1.54241 z m -113.00747,-3.90358 c 0.64084,-0.66997 1.44701,-1.21816 1.79121,-1.21816 2.10225,0 -0.96448,-8.53788 -3.92875,-10.93831 -1.28841,-1.043 -1.57033,-1.79028 -1.40345,-3.72442 0.13927,-1.61727 -0.0261,-2.27405 -0.4991,-1.9817 -0.38929,0.2405 -0.70771,1.29945 -0.70771,2.35288 0,1.05343 -0.21994,1.91575 -0.48867,1.91605 -0.26872,3e-4 -0.43438,-1.46358 -0.36812,-3.2517 0.0773,-2.09612 -0.21228,-3.58608 -0.81415,-4.18795 -1.48045,-1.48044 -1.15283,-2.05532 2.48479,-4.36557 1.88077,-1.19423 3.80665,-2.5437 4.2803,-2.99893 0.47363,-0.45524 1.11201,-0.82826 1.41909,-0.82826 0.30707,0 0.94575,-0.36812 1.41909,-0.81907 0.47333,-0.45094 3.05906,-2.28018 5.746,-4.06616 6.03437,-4.01064 6.87521,-4.78554 6.07241,-5.58711 -0.3899,-0.3899 -1.18595,-0.0138 -2.15594,1.01877 -0.84575,0.90036 -1.79396,1.6369 -2.10686,1.6369 -0.3129,0 -1.21448,0.65953 -2.00347,1.4654 -0.789,0.80589 -1.82096,1.5455 -2.29307,1.64304 -0.47212,0.0975 -1.6415,0.90374 -2.59861,1.79121 -0.9571,0.88745 -1.94213,1.61357 -2.18876,1.61357 -0.24664,0 -0.84391,0.36628 -1.32707,0.81416 -1.43075,1.32645 -4.98339,3.74252 -5.53925,3.76859 -0.28315,0.0129 -1.33718,0.69637 -2.34215,1.5188 -1.61696,1.32338 -1.71083,1.5921 -0.81415,2.33601 1.00281,0.83225 1.46602,4.74043 0.52456,4.42662 -0.59052,-0.19695 -0.81415,0.38499 -0.81415,2.11667 0,1.8007 1.28474,1.64917 1.37829,-0.16289 0.0613,-1.19025 0.13345,-1.24056 0.38469,-0.2675 0.17516,0.67918 -0.30155,1.84795 -1.1016,2.69952 -1.00741,1.07368 -1.18962,1.63813 -0.63745,1.97925 a 0.94667556,0.94667556 0 0 0 1.28595,-0.35186 1.2626431,1.2626431 0 0 1 1.47247,-0.46015 c 1.22277,0.46935 2.16116,6.20984 1.17614,7.19486 -0.38683,0.38684 -0.73961,0.49788 -0.7844,0.24695 -0.0447,-0.25093 -0.15338,-0.74913 -0.2454,-1.10742 a 13.105597,13.105597 0 0 1 -0.24542,-1.7369 c -0.0447,-0.59697 -0.23375,-0.93318 -0.42027,-0.74667 -0.1865,0.18651 -0.43714,2.98452 -0.55739,6.21812 l -0.21841,5.87945 2.99985,-1.30896 c 1.64978,-0.71998 3.52412,-1.85716 4.16495,-2.52713 z m 17.43068,-2.62867 c 5.3558,-3.64161 9.73794,-6.88319 9.73794,-7.20314 0,-0.31996 -0.36629,-0.36351 -0.81416,-0.0966 -1.22215,0.72826 -4.67632,3.12716 -5.04812,3.50601 -0.80434,0.81936 -5.89601,3.90204 -6.44512,3.90204 -0.33744,0 -0.74176,0.36628 -0.90189,0.81416 -0.16013,0.44788 -0.50524,0.61537 -0.76691,0.37241 -0.26167,-0.24296 0.13743,-0.96754 0.88777,-1.61021 1.6188,-1.38596 1.70316,-1.91237 0.38745,-2.41729 -1.96544,-0.75435 -3.09158,0.29755 -2.72652,2.54614 0.26535,1.63413 0.0116,2.4308 -1.11233,3.48607 -0.80066,0.75219 -2.00593,1.36786 -2.67836,1.36786 -1.17645,0 -1.17491,-0.0359 0.0421,-0.95619 0.69544,-0.5261 1.00865,-0.96569 0.69605,-0.97704 -0.31259,-0.0116 -0.18406,-0.48285 0.28376,-1.04729 0.66383,-0.79974 0.67641,-1.13503 0.0576,-1.51757 -0.43683,-0.26995 -0.60248,-0.99054 -0.36811,-1.60131 0.50615,-1.31909 -0.94453,-6.92735 -1.79181,-6.92735 -0.32395,0 -0.43347,1.53873 -0.24328,3.4195 0.24542,2.44216 0.18008,2.95415 -0.23436,1.7912 -1.03871,-2.91611 -3.73946,-7.49333 -4.35299,-7.37799 -1.57309,0.29572 -1.74856,2.06943 -0.37487,3.81431 a 11.080031,11.080031 0 0 1 1.82126,4.31311 c 0.23928,1.49608 0.7614,2.50748 1.29486,2.50748 0.49297,0 0.93747,0.73011 0.99146,1.62831 0.054,0.89821 0.127,1.97035 0.1629,2.38816 0.10887,1.27032 -1.43229,1.34977 -1.75869,0.0902 -0.23038,-0.88962 -0.32333,-0.80127 -0.38038,0.36014 -0.065,1.32461 0.14877,1.47983 1.55284,1.12735 0.93901,-0.23559 1.62831,-0.1276 1.62831,0.25493 0,0.36505 0.16104,0.66384 0.35799,0.66384 0.19694,0 4.74013,-2.97961 10.09593,-6.62152 z m -11.05979,2.27006 a 9.264291,9.264291 0 0 1 0.55494,-2.48909 c 0.49298,-1.2608 0.52426,-1.25559 0.97582,0.16473 a 2.2982804,2.2982804 0 0 1 -0.55494,2.48909 c -0.92704,0.92919 -1.01753,0.91386 -0.97582,-0.16473 z m 107.75167,0.75618 c -2.1495,-1.23841 -4.17353,-2.25564 -4.49809,-2.25994 -0.32455,-0.005 -1.55069,-0.74084 -2.72468,-1.63659 -2.48786,-1.89764 -2.87316,-1.98232 -2.87316,-0.63102 0,0.5485 0.51292,1.16571 1.13993,1.37277 1.68906,0.55617 8.06178,3.43915 9.93336,4.4938 0.89544,0.50463 1.92157,0.9163 2.27957,0.91509 0.35798,-0.001 -1.10743,-1.01571 -3.25662,-2.25411 z m -10.4984,-0.0199 c 0.2224,-0.57978 0.11316,-0.84115 -0.25584,-0.61353 a 1.3859625,1.3859625 0 0 0 -0.64421,1.01233 c 0,0.93686 0.4669,0.7304 0.90005,-0.3988 z m 2.09918,-1.41817 c -0.21657,-0.21657 -0.37026,0.16811 -0.34204,0.85495 0.0307,0.75894 0.1856,0.91324 0.39358,0.39359 0.18805,-0.47028 0.16504,-1.03196 -0.0513,-1.24854 z m -118.28841,-0.8663 c 0,-0.33744 -0.42948,-0.61353 -0.95651,-0.61353 -0.58101,0 -0.80986,0.38192 -0.58284,0.97336 0.38467,1.00189 1.53965,0.73164 1.53965,-0.36044 z m 23.2273,-1.42738 c -0.18069,-0.44787 -0.32855,-0.0813 -0.32855,0.81416 0,0.89544 0.14786,1.26202 0.32855,0.81415 a 2.5136291,2.5136291 0 0 0 0,-1.62831 z m 87.93436,1.16847 c 0,-0.5215 -0.24541,-0.79759 -0.54267,-0.61353 -0.7034,0.43469 -0.7034,1.56113 0,1.56113 0.29848,6.1e-4 0.54267,-0.42672 0.54267,-0.94821 z m -112.10098,-2.433 c 0.34235,-1.07859 0.0257,-1.79488 -1.29516,-2.93113 -0.9614,-0.82827 -1.43873,-1.50315 -1.06048,-1.50315 0.37824,0 0.69206,-0.51292 0.69758,-1.13993 0.008,-0.95619 0.10771,-0.98534 0.61598,-0.18162 0.70555,1.11755 0.99268,0.90864 1.64241,-1.2019 l 0.4761,-1.5464 -2.61639,1.47033 c -2.35719,1.32491 -2.63817,1.75775 -2.84709,4.37109 -0.12699,1.59517 0.0386,3.06764 0.36812,3.27041 0.32947,0.20277 0.38929,0.0307 0.13345,-0.38223 -0.68256,-1.10435 0.61812,-0.91753 1.56634,0.22516 1.12215,1.35223 1.78813,1.22277 2.31945,-0.45033 z m 25.88173,-3.74498 c 0.78962,-0.48899 2.15411,-1.35621 3.03268,-1.9274 1.48873,-0.96816 1.56756,-0.96141 1.16019,0.0997 -0.2402,0.6261 -0.29205,1.13809 -0.11536,1.13809 0.17669,0 0.60033,-0.73378 0.94146,-1.63107 0.63009,-1.65653 -0.2267,-4.69932 -1.59517,-5.65919 -0.79514,-0.55799 -2.43388,0.70863 -1.94366,1.50315 0.19632,0.31751 -0.0513,0.57764 -0.55003,0.57764 -1.63414,0 -1.79734,-0.84606 -0.30678,-1.58658 1.92772,-0.95711 2.37651,-3.62412 0.60986,-3.62412 a 3.1452574,3.1452574 0 0 0 -2.11484,1.01999 10.434598,10.434598 0 0 1 -2.68327,1.96974 c -2.1811,1.12797 -2.27558,2.06084 -0.53715,5.30456 a 21.367381,21.367381 0 0 1 1.77925,4.71988 c 0.41872,2.01177 0.50217,2.08968 0.68254,0.63838 a 3.9808842,3.9808842 0 0 1 1.6412,-2.54216 z m -2.14734,-0.99453 c 0,-0.55402 5.34568,-4.25605 6.12271,-4.2401 0.39419,0.008 -0.0162,0.6034 -0.91201,1.32338 -1.94765,1.56449 -5.2107,3.3922 -5.2107,2.91672 z m -1.30284,-3.92904 a 1.0221397,1.0221397 0 0 1 1.05681,-0.97704 c 0.86538,0 0.90987,0.17669 0.24541,0.97704 -1.02091,1.23012 -1.30283,1.23012 -1.30283,0 z m 11.60675,6.02485 3.04832,-2.11667 -2.13846,-0.20584 c -2.01084,-0.19357 -2.11667,-0.32946 -1.79703,-2.27987 0.44696,-2.71518 -1.37553,-7.48261 -3.98027,-10.41251 -2.83911,-3.19342 -7.39118,-5.47943 -7.39118,-3.71185 0,0.35829 0.45064,0.65126 1.00128,0.65126 1.1838,0 6.49329,5.30549 7.7593,7.75285 1.11632,2.1584 1.86023,7.32431 1.19087,8.27068 -0.27886,0.39419 -1.19056,1.07705 -2.02619,1.51726 -1.45069,0.76446 -1.46541,0.84145 -0.32578,1.70531 1.53904,1.16571 1.15343,1.26325 4.65883,-1.17092 z M 98.06941,163.7536 c 0.074,-1.9771 -0.64911,-1.54487 -1.364187,0.81569 -0.347248,1.14607 -0.2405,1.46725 0.415367,1.24914 0.4853,-0.16136 0.91231,-1.09054 0.94882,-2.06483 z m 11.39477,0.4353 c 1.04055,-0.61353 1.89182,-1.51848 1.89182,-2.00839 0,-0.4899 -0.21996,-0.78378 -0.48837,-0.65279 -3.27655,1.59517 -4.07107,2.16361 -4.07107,2.90629 0,1.13686 0.38897,1.10098 2.66885,-0.24542 z m -25.584171,-2.62774 c 1.763288,-1.69979 5.033088,-3.4195 6.50157,-3.4195 0.712316,0 1.465107,-0.44206 1.672482,-0.98166 0.207375,-0.53959 1.118161,-1.31908 2.024646,-1.73291 0.906497,-0.41382 1.646721,-1.143 1.646721,-1.62277 a 0.91323821,0.91323821 0 0 1 0.944525,-0.87245 c 1.140547,0 6.871517,-3.78117 6.871517,-4.53336 0,-1.1335 -2.386,-3.29957 -4.65759,-4.22814 -2.092755,-0.85557 -2.473452,-0.8571 -3.173792,-0.0132 -0.437451,0.52731 -1.174915,0.95863 -1.638743,0.95863 -0.463828,0 -0.940839,0.21994 -1.060178,0.48837 -0.119328,0.26842 -1.97587,1.65653 -4.125062,3.08513 -2.149191,1.4286 -4.054811,2.75536 -4.233351,2.94923 -0.17854,0.19388 -2.155024,1.51696 -4.391033,2.93973 -2.235998,1.42277 -4.067693,2.80721 -4.071067,3.07593 -0.0035,0.26873 -0.591748,0.48837 -1.308354,0.48837 -1.46142,0 -1.726465,0.95097 -0.488674,1.75285 0.820293,0.53101 6.908343,2.68357 7.816358,2.76364 0.268732,0.0237 1.020607,-0.46996 1.670952,-1.09669 z m 58.143871,-0.1629 c 1.04545,0 1.90194,-0.27241 1.90194,-0.60524 0,-0.33284 -1.17245,-2.37037 -2.60535,-4.52785 -1.4329,-2.15747 -2.61793,-4.15665 -2.63327,-4.44256 -0.0454,-0.8528 -4.69994,-5.7365 -6.91203,-7.25375 -2.46976,-1.69304 -3.62533,-1.73629 -8.7026,-0.32456 -3.94622,1.09729 -4.63214,1.95747 -3.2741,4.10512 a 1.4387259,1.4387259 0 0 1 -0.066,1.76267 1.4807527,1.4807527 0 0 0 -0.18161,1.59793 q 0.48867,0.79054 -0.48683,0.41628 c -0.56015,-0.21472 -0.97521,-0.0116 -0.97521,0.47825 0,1.15313 4.12783,-0.78132 4.66742,-2.18723 0.28713,-0.7482 0.05,-0.69574 -0.95096,0.21167 -1.5013,1.35866 -2.53786,1.00005 -1.14271,-0.39511 0.4936,-0.49358 0.78287,-1.24148 0.64422,-1.66175 -0.13866,-0.42027 0.41658,-1.12368 1.23687,-1.56266 a 12.151867,12.151867 0 0 0 2.36577,-1.67247 c 1.09055,-1.09056 2.33387,-1.10834 4.20942,-0.0613 4.87756,2.72622 9.14404,9.26429 9.15662,14.03203 0.006,2.14152 0.22332,2.71333 0.92919,2.44246 a 10.237348,10.237348 0 0 1 2.82224,-0.35371 z m -17.98162,-0.62487 c 0.5804,-0.93901 -1.06601,-3.20201 -2.05379,-2.82224 -1.07368,0.41168 -1.10926,1.63629 -0.0794,2.66609 0.94392,0.94392 1.61603,0.9933 2.13324,0.15676 z m -5.80215,-2.47958 c -0.59021,-0.59022 -2.40657,0.48898 -1.98108,1.17736 0.29173,0.47212 0.71782,0.4445 1.35957,-0.0883 0.51414,-0.4267 0.79391,-0.91692 0.62151,-1.08901 z m 29.2589,-0.12669 c 0.87367,-2.75261 0.49298,-5.72577 -0.98993,-7.73047 -1.81205,-2.45105 -2.31853,-2.50167 -4.79258,-0.47855 l -1.88231,1.53934 1.39394,1.95746 c 0.76691,1.07675 1.39394,2.45136 1.39394,3.05537 0,1.35622 2.59554,3.54927 3.69928,3.12563 0.44573,-0.17117 0.97582,-0.83163 1.17766,-1.46755 z m -39.26955,0.12639 a 1.2528266,1.2528266 0 0 1 -0.78225,-1.12246 c 0,-0.54113 -0.48469,-0.73623 -1.30284,-0.52149 -0.71659,0.18743 -1.30282,0.71874 -1.30282,1.18073 0,0.51935 0.49726,0.71016 1.30282,0.49941 0.75711,-0.19786 1.30284,-0.0199 1.30284,0.42518 0,0.42947 0.34295,0.5537 0.78225,0.28252 0.60862,-0.37609 0.60862,-0.54112 0,-0.74421 z m 42.78538,-0.19817 c -0.47579,-0.29388 -0.72673,-0.62366 -0.558,-0.73286 0.16872,-0.10922 0.87551,-0.51231 1.57063,-0.89607 2.00103,-1.10435 1.88476,-1.97618 -0.44787,-3.35263 l -2.17005,-1.28043 -0.12762,2.93573 c -0.13007,2.98942 0.78255,4.98247 1.95072,4.26066 0.39481,-0.24541 0.30983,-0.60832 -0.21781,-0.9344 z m -35.14602,-0.51967 c 0.62457,-1.1657 0.35125,-2.03967 -0.63808,-2.03967 -0.25675,0 -0.60677,0.73286 -0.77826,1.62831 -0.36596,1.91083 0.48009,2.15685 1.41572,0.41075 z m -16.40056,-0.43499 c 2.74799,-2.4127 5.29077,-4.21004 5.95614,-4.21004 a 0.69052711,0.69052711 0 0 0 0.72028,-0.65126 c 0,-0.3583 -0.19848,-0.65126 -0.44082,-0.65126 -0.52855,0 -9.32963,5.91074 -9.32963,6.26598 0,0.64421 2.07833,0.13865 3.09403,-0.75311 z m 21.65758,0.0239 c 0,-0.54266 -0.57885,-0.97703 -1.30282,-0.97703 -0.71661,0 -1.30284,-0.26168 -1.30284,-0.58286 0,-0.32118 -0.45492,-0.75618 -1.01231,-0.96968 q -1.66268,-0.63807 0.94851,2.24889 c 1.29516,1.43044 2.66886,1.57401 2.66886,0.27915 z m 5.88192,-2.99586 c 2.87959,-1.91267 3.82013,-2.86978 3.31612,-3.3744 -0.81784,-0.81784 -2.73511,0.0417 -5.61778,2.51852 -1.00558,0.86417 -2.07618,1.57126 -2.37865,1.57126 -0.30247,0 -0.55003,0.43959 -0.55003,0.97704 0,1.48873 0.85893,1.2108 5.23034,-1.69304 z m -5.54938,0.054 a 0.80832472,0.80832472 0 0 1 1.11601,-0.22516 c 0.4218,0.26074 0.51966,0.13375 0.24235,-0.31505 -0.25554,-0.41352 -0.14235,-0.75188 0.25154,-0.75188 0.39388,0 1.65653,-0.65862 2.80659,-1.46326 1.15006,-0.80466 2.2176,-1.54242 2.37282,-1.63936 0.15523,-0.0969 -0.0307,-0.49082 -0.41505,-0.87305 -0.49542,-0.49542 -0.82397,-0.49083 -1.13503,0.0104 -0.24081,0.38959 -0.93317,0.685 -1.53903,0.65678 -0.67827,-0.0307 -0.7887,-0.17762 -0.28713,-0.38009 0.44787,-0.18068 0.81414,-0.53469 0.81414,-0.78684 0,-0.69545 -2.52681,-0.73869 -2.95199,-0.0503 -0.20492,0.33131 0.0196,0.45217 0.4988,0.26811 0.5307,-0.20369 0.90863,0.16596 0.96753,0.94575 0.0613,0.82551 -0.69758,1.74857 -2.13999,2.59953 -1.23012,0.72581 -2.23631,1.62247 -2.23631,1.99396 -10e-4,0.86354 1.10098,0.87122 1.63383,0.009 z m -3.76738,-5.65705 c 0.12455,-2.09059 0.0518,-2.24613 -0.46935,-1.00342 a 4.9935142,4.9935142 0 0 1 -2.22865,2.20502 c -0.88624,0.40371 -1.77524,1.1608 -1.97525,1.68199 -0.69268,1.80532 0.39234,2.19705 2.46485,0.88962 1.65653,-1.04483 2.08968,-1.78444 2.20871,-3.77321 z m 38.96156,-5.26745 c -0.65464,-0.65464 -0.71445,0.15707 -0.37456,5.07204 l 0.33744,4.88523 0.19633,-4.80087 c 0.10794,-2.64032 0.0362,-4.96068 -0.15952,-5.1567 z m -1.47585,5.23494 c -0.30216,-4.51956 -0.77273,-6.95466 -1.25128,-6.47611 -0.50739,0.50739 0.47732,10.22139 1.03624,10.22139 0.25707,3.2e-4 0.35401,-1.68505 0.21627,-3.74497 z m -4.41403,2.44276 c -0.22148,-0.3583 -0.0921,-0.65126 0.28713,-0.65126 0.37916,0 0.66599,-0.80617 0.63685,-1.79119 l -0.0528,-1.7912 -0.86108,1.95408 c -0.78777,1.78752 -0.7617,2.93115 0.0669,2.93115 0.17914,0 0.14448,-0.29297 -0.077,-0.65126 z m 3.1017,-11.17849 c 0.55432,-0.34266 0.36199,-1.24485 -0.69851,-3.27748 l -1.46326,-2.80475 0.30247,4.88523 c 0.16658,2.68695 0.381,6.6436 0.47671,8.7931 0.14909,3.34925 0.20584,3.11949 0.39572,-1.60775 0.13222,-3.29343 0.52979,-5.70582 0.98656,-5.98835 z m -4.81958,9.94376 c 0.90035,-0.57057 1.28135,-6.48008 0.49911,-7.74549 -0.68869,-1.11417 -4.8162,-2.76088 -5.88988,-2.35105 -1.43659,0.55218 -1.30099,1.38444 0.59205,3.63394 0.89575,1.06447 1.62831,2.51823 1.62831,3.23084 0,1.47615 1.11755,3.82045 1.81421,3.80542 a 3.7351658,3.7351658 0 0 0 1.35497,-0.57334 z m -5.24874,-3.49895 c 0.56476,-0.6804 0.36229,-1.43627 -0.87213,-3.25171 -1.27001,-1.86881 -1.61727,-3.2287 -1.65347,-6.47272 -0.066,-5.92057 -1.12306,-7.91208 -1.31449,-2.47713 -0.0819,2.32865 -0.0921,4.81957 -0.0246,5.53618 0.0746,0.78255 -0.72795,1.99765 -2.01053,3.04464 l -2.13478,1.74242 1.36541,1.51481 a 10.415578,10.415578 0 0 1 1.78537,2.69952 c 0.40063,1.13135 0.50586,1.12521 2.2719,-0.13252 a 17.437727,17.437727 0 0 0 2.58756,-2.20503 z m 70.08588,0.66292 c 0.58531,-1.1657 1.53382,-2.84953 2.1087,-3.74529 0.79022,-1.23228 0.55617,-1.11847 -0.96355,0.46904 -1.10435,1.15374 -2.15624,1.85716 -2.33785,1.56451 -0.1816,-0.29267 1.5645,-2.34615 3.8818,-4.56129 2.3173,-2.21515 4.21157,-4.24992 4.21157,-4.52202 0,-0.2721 -1.61205,-1.28504 -3.5824,-2.25134 -1.97035,-0.96632 -3.59129,-2.1265 -3.60233,-2.57683 -0.0116,-0.46014 -0.31567,-0.31321 -0.69145,0.33223 -0.36812,0.63438 -0.92642,0.99606 -1.2378,0.80371 a 0.73071328,0.73071328 0 0 0 -0.97551,0.31199 c -0.75188,1.21632 -2.2854,0.68776 -2.3314,-0.80372 a 9.1854524,9.1854524 0 0 0 -0.60127,-2.76825 c -0.39388,-0.92398 -0.5445,-0.2724 -0.51781,2.23939 0.0252,2.34674 0.6715,5.08002 1.91481,8.09491 1.03228,2.5035 2.05533,5.67207 2.27497,7.04147 0.48684,3.04402 1.06325,3.13145 2.45013,0.37272 z m -107.15073,-0.0865 c 0.60342,-0.72703 0.36812,-0.95649 -1.22306,-1.18994 -1.0838,-0.1592 -1.97035,-0.21748 -1.97035,-0.12945 0,2.00839 1.95225,2.81488 3.19341,1.31909 z m 79.26,-4.51679 a 20.18235,20.18235 0 0 1 -0.38223,-3.11243 c 0,-1.31695 -1.44639,-1.10436 -3.30968,0.48713 -0.56629,0.48377 -1.22706,0.68348 -1.46541,0.4439 -0.53562,-0.53562 -0.562,4.12935 -0.0343,6.09724 l 0.38346,1.43045 2.59523,-1.71788 c 2.28815,-1.51419 2.55013,-1.94336 2.213,-3.62873 z m -96.008729,3.01733 c -0.470274,-0.18805 -1.031958,-0.16504 -1.248527,0.0516 -0.216581,0.21658 0.168407,0.37026 0.854949,0.34204 0.758936,-0.0307 0.913244,-0.18406 0.393578,-0.39358 z m 79.528109,-1.96882 c -0.30861,-0.80402 -0.13988,-0.96538 0.67979,-0.65095 2.12005,0.81354 1.00097,-5.06529 -1.57493,-8.27282 l -2.29154,-2.8569 c -0.94544,-1.17952 -1.87923,-1.98447 -2.07495,-1.78875 -0.19571,0.19571 0.32855,1.08441 1.16571,1.97464 1.26694,1.34976 1.51694,2.30074 1.49609,5.69694 l -0.0248,4.07751 0.40615,-3.25662 c 0.35401,-2.83788 0.50249,-3.09371 1.15528,-1.98845 a 3.3790121,3.3790121 0 0 1 0.2586,2.60536 c -0.61353,1.66911 -0.0859,6.33285 0.66261,5.87055 0.3037,-0.18774 0.36812,-0.82244 0.14204,-1.41111 z m -0.18405,-3.48698 c 0,-1.16234 0.27117,-1.82465 0.65126,-1.58997 0.8482,0.52426 0.8482,3.58239 0,3.58239 -0.35831,0 -0.65126,-0.89666 -0.65126,-1.99396 z m -50.45142,-1.30805 c 4.81988,-3.24833 8.76364,-5.98529 8.76364,-6.08223 0,-0.0969 -1.36724,-0.22792 -3.03696,-0.29112 -1.66972,-0.0632 -3.38331,-0.40124 -3.80389,-0.75126 -0.42057,-0.35002 -0.9344,-0.46874 -1.13962,-0.26352 -0.20523,0.20523 -1.01601,0.0285 -1.80255,-0.39235 -1.26878,-0.67918 -2.17221,-0.26443 -8.03479,3.68732 -3.63271,2.44891 -6.9927,4.82111 -7.46603,5.27175 a 3.1066051,3.1066051 0 0 1 -1.79121,0.81936 c -0.99851,0 -1.2111,1.16571 -0.43192,2.36731 0.63745,0.98441 2.37651,1.37431 6.53409,1.46542 3.31306,0.0727 3.79253,-0.15584 12.21261,-5.83037 z m 15.92814,5.29138 c 0,-0.33744 0.87918,-1.13503 1.95408,-1.76881 1.0749,-0.63377 1.9541,-1.33718 1.9541,-1.56081 0,-0.22363 -1.18197,-0.79758 -2.62652,-1.27338 -2.38724,-0.78777 -2.7842,-0.74913 -4.35606,0.42395 -2.40994,1.79917 -2.41055,2.35472 -0.003,3.60816 2.47712,1.28994 3.07776,1.40161 3.07776,0.57119 z m -38.429946,-2.33202 c 0,-0.43162 -0.586228,-1.52984 -1.302834,-2.44062 -2.030478,-2.58112 -1.533827,-2.90629 0.875505,-0.57212 l 2.178025,2.11116 3.52135,-2.26546 c 1.93661,-1.24608 4.16066,-2.78972 4.9426,-3.43024 l 1.42154,-1.16571 -2.02464,-0.66997 c -1.11325,-0.36812 -2.15932,-1.0832 -2.32466,-1.58813 -0.19142,-0.58285 0.0276,-0.78471 0.60248,-0.55217 3.15047,1.28013 3.09832,1.28258 2.7302,-0.12608 -0.22914,-0.87643 -0.74175,-1.26572 -1.41786,-1.07706 -4.17383,1.16387 -5.29291,1.14577 -5.29291,-0.0846 0,-1.35467 3.54159,-4.3131 4.70055,-3.92658 0.41567,0.13866 0.0697,0.85557 -0.80648,1.67187 -1.2056,1.12307 -1.30774,1.42921 -0.47672,1.42921 a 9.7382422,9.7382422 0 0 0 2.70628,-0.62671 c 1.23166,-0.46813 1.88967,-0.38592 2.60137,0.32577 0.52394,0.52396 1.35467,0.95251 1.84579,0.95251 a 2.6817361,2.6817361 0 0 1 1.61819,0.72488 c 1.01632,1.01632 2.08416,0.17487 1.68996,-1.33166 -0.19449,-0.74421 -0.69942,-1.11478 -1.23748,-0.90833 -0.54696,0.20983 -1.12675,-0.24142 -1.45683,-1.1335 -0.36015,-0.97397 -0.70985,-1.22062 -1.01968,-0.71936 -0.70556,1.13933 -1.6958,0.92029 -1.70715,-0.37701 -0.008,-0.95619 -0.10771,-0.98533 -0.61598,-0.1816 -0.87275,1.38043 -1.55713,0.36812 -1.06816,-1.57923 0.46291,-1.84458 2.61241,-2.29767 3.23239,-0.68163 a 1.605606,1.605606 0 0 0 1.37245,0.97705 c 0.54851,0 0.99761,0.31044 0.99761,0.6899 0,0.37947 0.29295,0.50862 0.65126,0.28714 0.3583,-0.22148 0.65126,-0.112 0.65126,0.24327 0,0.35523 0.65954,0.85403 1.46572,1.10864 a 6.5699774,6.5699774 0 0 1 2.50872,1.66052 c 0.57365,0.65862 1.2332,1.00772 1.46543,0.77519 0.23222,-0.23253 0.42241,-0.0632 0.42241,0.37609 0,0.4393 0.29296,0.61722 0.65126,0.39574 0.3583,-0.22149 0.65126,-0.0954 0.65126,0.28007 0,0.37548 0.65954,0.65279 1.46541,0.61629 a 17.374226,17.374226 0 0 1 3.66952,0.43192 c 1.70101,0.38439 2.13816,0.30001 1.91513,-0.36812 a 2.9449402,2.9449402 0 0 0 -1.22706,-1.38043 c -0.51597,-0.28314 -5.18831,-3.05446 -10.38275,-6.15891 -5.19445,-3.10447 -10.32387,-6.11812 -11.39846,-6.69668 -1.0746,-0.57856 -2.05164,-1.27215 -2.17127,-1.54088 -0.11965,-0.26872 -0.61139,-0.48837 -1.09332,-0.48837 -0.48193,0 -1.2697,-0.39327 -1.75039,-0.87428 a 11.958297,11.958297 0 0 0 -2.33142,-1.65468 c -1.28227,-0.68623 -1.527071,-0.60034 -2.028638,0.71138 a 8.5752977,8.5752977 0 0 1 -1.947951,2.73267 c -1.249756,1.12582 -1.388412,2.00133 -1.497015,9.44435 -0.113508,7.80409 -0.139572,7.94981 -0.531921,2.9931 l -0.411677,-5.211 -0.11934,5.2653 c -0.06562,2.89586 0.09994,5.48465 0.368118,5.75307 0.268117,0.26843 0.446958,2.29552 0.398796,4.50515 l -0.09044,4.01862 0.473649,-3.58241 0.473637,-3.58239 0.106087,4.38274 0.106203,4.38275 1.628309,-0.74206 c 0.895447,-0.408 1.628308,-1.09516 1.628308,-1.52646 z m 54.076766,-4.86836 -0.46965,-6.18776 -0.0982,5.32023 c -0.0844,4.56651 0.31904,7.9038 0.87582,7.2464 0.0889,-0.10493 -0.0497,-2.97562 -0.30677,-6.37887 z m 21.80513,-0.65433 c -1.1157,-4.553 -2.85536,-7.03626 -4.30267,-6.14173 -0.55771,0.3448 -0.67704,0.16749 -0.39021,-0.57979 0.227,-0.59175 0.12761,-1.00619 -0.22118,-0.9203 -0.34879,0.0859 -1.58382,-0.65862 -2.74493,-1.65315 -3.18575,-2.73021 -7.1249,-5.68251 -7.574,-5.67882 -0.21934,0.002 -0.43224,1.39393 -0.47304,3.09402 -0.0408,1.7001 0.0522,2.28478 0.20615,1.29946 0.32977,-2.10932 0.7936,-2.18723 3.61551,-0.60709 2.21669,1.24117 8.30228,6.6976 8.30228,7.44395 0,0.23836 0.73286,1.51297 1.62831,2.83268 0.89544,1.31969 1.6283,3.06764 1.6283,3.88363 a 8.782057,8.782057 0 0 0 0.46935,2.67744 c 1.04515,2.6572 0.94668,-1.19638 -0.14449,-5.64907 z m 2.34644,2.1446 c -0.6258,-1.07369 -0.67918,-1.06049 -0.69758,0.19264 -0.022,1.50775 0.80464,2.68327 1.15252,1.63936 0.1227,-0.36812 -0.0825,-1.19147 -0.45524,-1.832 z m -25.78079,-7.6495 c -0.28314,-5.28526 -0.74022,-8.82163 -1.14024,-8.82163 -0.40923,0 -0.51383,0.96415 -0.26996,2.48909 0.21904,1.36908 0.59391,5.47697 0.83318,9.1287 0.23928,3.65172 0.57334,6.50157 0.74236,6.33255 0.16904,-0.16904 0.0945,-4.27691 -0.16534,-9.12871 z m 51.11924,8.25626 c 0,-0.27977 0.87918,-0.84053 1.95409,-1.24608 1.92004,-0.72488 1.95409,-0.81844 1.95409,-5.392 0,-2.93727 -0.24019,-4.50607 -0.65126,-4.25206 -0.35829,0.22148 -0.65586,0.8982 -0.66138,1.50315 -0.008,0.94912 -0.0973,0.9663 -0.64145,0.12454 -0.53224,-0.82335 -0.63285,-0.78685 -0.64144,0.23252 -0.007,0.81385 -0.33437,1.08503 -1.0019,0.82827 -0.54543,-0.20921 -1.54701,0.17454 -2.22557,0.85311 -0.67857,0.67856 -1.43873,1.03809 -1.68967,0.79943 -0.25092,-0.23866 -0.25338,0.59175 -0.006,1.84551 0.75157,3.80388 1.07153,4.59502 1.70284,4.20482 0.33254,-0.20554 0.60433,-0.0632 0.60433,0.31626 a 0.67488212,0.67488212 0 0 0 0.65126,0.68992 0.59512333,0.59512333 0 0 0 0.65126,-0.50862 z m -2.34491,-3.00874 c -0.23835,-0.6212 -0.11107,-1.45223 0.28284,-1.84611 0.5215,-0.52151 0.83471,-0.40831 1.15006,0.41321 0.23835,0.6212 0.11107,1.45223 -0.28283,1.84611 -0.5215,0.52149 -0.83471,0.4083 -1.15007,-0.41321 z m 2.44767,-1.69365 c 0,-0.89575 0.14787,-1.26204 0.32855,-0.81416 a 2.5136291,2.5136291 0 0 1 0,1.62832 c -0.18068,0.44787 -0.32855,0.0813 -0.32855,-0.81416 z m 1.9541,-0.65127 c 0,-0.89574 0.14786,-1.26203 0.32855,-0.81416 a 2.5154697,2.5154697 0 0 1 0,1.62832 c -0.18069,0.44788 -0.32855,0.0813 -0.32855,-0.81416 z m -63.32632,1.79121 c -0.0307,-2.48695 -0.19174,-3.06428 -0.59329,-2.11668 -0.30369,0.71661 -1.44025,1.87986 -2.52559,2.5848 l -1.97373,1.28228 2.07864,0.75709 a 26.660911,26.660911 0 0 0 2.56701,0.83471 c 0.26873,0.0427 0.46996,-1.46112 0.44726,-3.3419 z m 6.20216,2.07158 c -0.55831,-0.90342 -0.94913,-0.73623 -0.94913,0.40922 0,0.55862 0.29786,0.83133 0.66199,0.60647 a 0.74973269,0.74973269 0 0 0 0.28714,-1.01539 z m 36.64333,-0.33959 c 4.50024,-1.49609 15.9404,-7.06847 22.09257,-10.761 4.79381,-2.87715 5.28863,-3.36152 5.20151,-5.09229 -0.13959,-2.77439 -0.63594,-2.93299 -3.50664,-1.12062 -3.75663,2.37161 -4.99412,2.43265 -5.24567,0.25953 -0.11351,-0.98503 -0.52856,-1.7912 -0.92275,-1.7912 -0.39419,0 -0.52978,-0.18682 -0.30154,-0.41505 0.22823,-0.22823 -0.16259,-1.22707 -0.86846,-2.21761 -0.70586,-0.99054 -1.28351,-2.03139 -1.28351,-2.31146 0,-0.28009 -1.20864,-1.94213 -2.68571,-3.69376 l -2.68573,-3.18514 1.79917,-1.41633 c 4.65638,-3.66583 4.61957,-3.61982 3.57227,-4.34624 -1.19637,-0.828265 -7.30099,-0.14541 -7.95562,0.89207 -0.25554,0.40432 -0.54881,0.64789 -0.65127,0.54083 -0.36811,-0.38376 -7.02491,2.66026 -7.02491,3.21244 0,0.31045 -0.43744,0.56444 -0.97213,0.56444 -1.18228,0 -3.20845,1.70316 -8.13601,6.83932 -7.95747,8.29492 -9.11429,10.09746 -6.47857,10.09746 a 3.7710572,3.7710572 0 0 1 2.31178,0.96264 24.179185,24.179185 0 0 0 2.07036,1.801 8.173436,8.173436 0 0 1 1.82893,2.13141 c 0.90189,1.61696 2.86119,2.08906 2.86119,0.6893 0,-0.69974 0.6074,-1.0249 1.91574,-1.0249 1.05375,0 2.07987,-0.26566 2.2805,-0.59021 0.20062,-0.32456 0.95096,-0.43684 1.66695,-0.24971 2.12006,0.55432 1.8182,5.13186 -0.45646,6.92091 -0.96723,0.76078 -2.43264,1.29486 -3.25662,1.18688 -1.22705,-0.16074 -1.49823,0.10829 -1.49823,1.47861 0,2.03629 1.62922,2.20104 6.32793,0.63899 z m -34.56622,-3.03482 c -0.22578,-1.88079 -0.41781,-5.17819 -0.42641,-7.3277 -0.008,-2.14949 -0.23099,-3.57197 -0.4942,-3.15967 -0.75555,1.17951 -0.1767,13.9084 0.63255,13.9084 0.46015,0 0.55893,-1.16386 0.28806,-3.4195 z m 12.01964,-4.39687 c -0.60095,-3.40079 -0.6212,-3.3017 -0.39664,1.9541 0.26872,6.29143 0.44603,7.17001 0.78961,3.90788 0.1319,-1.25375 -0.0448,-3.89163 -0.39297,-5.86228 z m -14.04981,1.46542 c -0.22486,-2.77653 -0.56169,-5.66073 -0.7482,-6.40923 -0.24173,-0.96938 0.14233,-1.67709 1.3335,-2.45749 2.12987,-1.39548 2.11668,-2.01729 -0.041,-2.14245 -0.94208,-0.0546 -1.99397,-0.49419 -2.34061,-0.97705 -0.48255,-0.67487 -0.54728,-0.62518 -0.27916,0.21474 a 1.8172735,1.8172735 0 0 1 -0.51139,1.80592 c -0.47302,0.39235 -1.02121,1.51297 -1.21846,2.49032 a 28.081231,28.081231 0 0 1 -0.81752,3.07931 c -0.46016,1.30282 -0.46016,1.30282 0.585,0 0.98655,-1.23106 1.05158,-1.07 1.18411,2.93113 l 0.14018,4.23336 0.3758,-5.21071 0.37578,-5.2107 0.55923,6.35002 c 0.30676,3.49313 0.84114,6.35003 1.18564,6.35003 0.38193,0 0.4669,-1.9682 0.2175,-5.04812 z m -55.383904,3.09403 c -0.515678,-0.83471 -0.977048,-0.83471 -0.977048,0 a 0.67488212,0.67488212 0 0 0 0.689916,0.65126 c 0.379468,0 0.508617,-0.29296 0.287132,-0.65126 z m 64.226084,-3.43577 c -0.25523,-4.8346 -0.71906,-4.71988 -0.71906,0.17793 0,2.27006 0.20216,3.92291 0.44942,3.67597 0.24724,-0.24695 0.36811,-1.9814 0.26964,-3.8539 z m -15.53732,-0.45033 c 1.77095,-0.8844 2.40105,-1.9771 1.13994,-1.9771 a 0.6681333,0.6681333 0 0 0 -0.65126,0.6798 c 0,0.37395 -0.36629,0.63224 -0.81416,0.57426 -1.76819,-0.22946 -2.44307,0.0975 -2.45258,1.18841 -0.008,0.97398 -0.1018,0.99791 -0.64145,0.16289 -0.36229,-0.56046 -0.63561,-0.65279 -0.64144,-0.21474 a 7.6718759,7.6718759 0 0 1 -0.4399,1.9541 c -0.38959,1.08103 -0.28253,1.06815 1.13994,-0.13927 a 20.263949,20.263949 0 0 1 3.36122,-2.22681 z m 13.76699,-2.13999 c -0.42795,-5.34107 -0.61538,-6.2037 -1.21725,-5.60183 -0.54481,0.54482 0.47947,10.97574 1.07766,10.97574 0.31444,0 0.37701,-2.40841 0.13959,-5.3736 z m -41.3344,3.03697 c -1.14269,-1.37676 -2.03447,-1.10711 -1.12981,0.34144 0.43284,0.69328 1.03594,1.1068 1.33994,0.92029 0.30401,-0.18652 0.20952,-0.75526 -0.21013,-1.2605 z m 103.24653,-2.71026 c -0.5712,-2.61578 -1.71788,-5.46041 -2.06084,-5.11745 -0.16382,0.16381 0.0635,1.41879 0.50524,2.7891 0.44174,1.37033 0.89913,2.85782 1.01631,3.3054 0.42947,1.6418 0.91815,0.758 0.53929,-0.97705 z m -3.9048,-2.92101 c -0.82458,-1.10435 -0.99852,-1.17399 -0.69268,-0.2761 0.22486,0.66017 0.61967,1.97925 0.87735,2.93115 0.44082,1.62769 0.48223,1.64395 0.69267,0.27608 0.12424,-0.80065 -0.27087,-2.11943 -0.87734,-2.93113 z m -79.15631,2.57375 c -0.14939,-0.10122 -0.85893,-0.61352 -1.57401,-1.13994 -1.20497,-0.88378 -1.23564,-0.86998 -0.40892,0.18406 0.49083,0.62703 1.20007,1.13994 1.57402,1.13994 0.37395,0 0.55892,-0.0825 0.40984,-0.18406 z m 5.50214,-1.44763 c 0.27884,-0.72671 -1.30467,-1.82432 -6.11812,-4.23978 -3.57196,-1.79243 -6.4942,-2.94955 -6.4942,-2.57161 0,0.37793 0.90188,1.18687 2.0044,1.79702 1.51694,0.83992 9.56001,5.54601 10.13857,5.93252 0.0512,0.0343 0.26259,-0.37915 0.46935,-0.91845 z m 70.50093,-0.79758 c -0.21657,-0.21658 -0.37027,0.16841 -0.34205,0.85495 0.0307,0.75894 0.18406,0.91325 0.39358,0.39358 0.18805,-0.47027 0.16505,-1.03196 -0.0515,-1.24853 z m -117.293589,-0.0507 c -0.200627,-0.20063 -0.726113,0 -1.167854,0.4448 -0.63838,0.64421 -0.563527,0.71814 0.364743,0.36474 0.642368,-0.2454 1.003738,-0.60893 0.803424,-0.80924 z m 49.588209,-1.60378 c -0.17854,-0.44081 -0.31352,0.0776 -0.30033,1.15222 0.0132,1.0746 0.15921,1.43565 0.32424,0.80188 a 3.7262696,3.7262696 0 0 0 -0.0233,-1.95348 z m 79.48514,-0.31319 c -0.16381,-0.62703 -0.29787,-0.11409 -0.29787,1.13993 0,1.25405 0.13406,1.76665 0.29787,1.13994 a 5.3487476,5.3487476 0 0 0 0,-2.27987 z m -79.9226,-1.73936 c 0.006,-0.68839 0.49666,-1.78937 1.09148,-2.44645 1.27797,-1.41112 1.52093,-1.17951 -3.34037,-3.20017 l -3.88702,-1.61603 -3.50569,1.89856 -3.50571,1.89857 6.08989,3.08022 c 6.16597,3.11857 7.03472,3.16581 7.05558,0.38499 z m 10.88033,-0.86538 c -0.16382,-0.62703 -0.29787,-0.11409 -0.29787,1.13993 0,1.25406 0.13405,1.76666 0.29787,1.13994 a 5.3484408,5.3484408 0 0 0 0,-2.27987 z m 14.04275,-0.48838 c 0.59758,-1.22122 0.54636,-1.21509 -0.81845,0.0973 -0.92029,0.88441 -1.26294,1.71205 -0.93195,2.24766 0.41904,0.67795 0.58286,0.65832 0.81845,-0.0973 a 19.85718,19.85718 0 0 1 0.93195,-2.24796 z m -22.97942,0 c 0,-0.3583 -0.28405,-0.21166 -0.63131,0.32579 a 3.9137028,3.9137028 0 0 0 -0.63132,1.62831 c 0,0.35829 0.28406,0.21166 0.63132,-0.32579 a 3.913396,3.913396 0 0 0 0.63131,-1.62831 z m 70.45461,0.81508 c 0.0481,-0.44788 0.12272,-1.69366 0.1629,-2.76825 0.0567,-1.4783 0.35247,-1.90746 1.21509,-1.76267 0.69115,0.11597 1.13994,-0.21964 1.13994,-0.85249 0,-0.57426 0.29327,-0.86294 0.65126,-0.64145 0.35799,0.22148 0.65127,0.0921 0.65127,-0.28713 0,-0.37916 0.43959,-0.68992 0.97704,-0.68992 1.3832,0 1.21141,-1.71972 -0.32578,-3.25661 -1.62249,-1.62247 -2.01637,-1.62247 -3.75787,0 -1.83231,1.70684 -2.09152,1.64856 -2.16913,-0.48837 l -0.065,-1.79119 -0.47333,1.6283 a 7.8108402,7.8108402 0 0 0 0.065,3.57811 23.656153,23.656153 0 0 1 0.53837,5.04811 c 0,1.70408 0.29326,3.09832 0.65126,3.09832 a 0.85495294,0.85495294 0 0 0 0.73899,-0.81415 z m 7.71852,-1.34118 c 0.006,-0.28989 -0.33285,-0.31505 -0.75189,-0.0561 -0.53193,0.32885 -0.61874,0.0945 -0.28713,-0.7758 0.35922,-0.94268 0.29112,-1.06417 -0.27977,-0.49818 -0.43928,0.43591 -0.56168,1.3562 -0.29296,2.20287 0.36015,1.13503 0.58684,1.25773 1.03165,0.55402 a 3.7569461,3.7569461 0 0 0 0.5801,-1.42707 z m -127.877898,-1.2767 c -0.178529,-0.44083 -0.313509,0.0776 -0.300315,1.1522 0.01322,1.0746 0.159201,1.43566 0.324245,0.8019 a 3.7259629,3.7259629 0 0 0 -0.02423,-1.9541 z m 70.942378,1.16571 c 0.95926,-0.88963 1.94091,-1.49456 2.18141,-1.34578 0.62948,0.38898 1.3924,-0.23284 4.57938,-3.7321 1.55867,-1.71144 2.36208,-2.93114 1.78875,-2.71057 -0.57335,0.22057 -2.11668,1.71021 -3.42903,3.30998 -1.31233,1.59979 -2.53939,2.75352 -2.7302,2.56333 -0.19081,-0.19019 0.0252,-0.79237 0.47825,-1.3384 0.56353,-0.67888 0.59267,-0.9927 0.0921,-0.9927 a 0.69666241,0.69666241 0 0 0 -0.73102,0.65126 c 0,0.3583 -0.38284,0.65126 -0.85066,0.65126 -0.46781,0 -1.77708,0.68378 -2.90997,1.51941 -1.5697,1.15804 -1.8786,1.70009 -1.29882,2.27987 0.97275,0.97275 0.79758,1.02583 2.82805,-0.85587 z m 43.66856,-1.72218 2.6805,-1.81421 -0.87396,-3.3695 c -0.8614,-3.32134 -5.50275,-10.36864 -6.82889,-10.36864 -0.87397,0 -0.47641,-4.063725 0.4267,-4.359135 0.37947,-0.1227 1.16571,0.73256 1.74857,1.903785 0.89452,1.79764 1.066,1.90716 1.10128,0.70279 0.0231,-0.785 -0.25155,-1.608365 -0.60985,-1.829535 -0.89299,-0.55218 -0.82397,-2.279875 0.0921,-2.279875 0.4083,0 1.13165,0.5129 1.60775,1.139935 0.79758,1.05129 0.86692,1.05435 0.88593,0.0384 0.0116,-0.605865 -0.27241,-1.282585 -0.6307,-1.503155 -0.3583,-0.22057 -0.65126,-0.97153 -0.65126,-1.66696 0,-0.69544 -0.36628,-1.26909 -0.81415,-1.27461 -0.44789,-0.006 -1.80655,-0.88501 -3.01949,-1.95409 -1.21295,-1.06907 -2.46885,-1.943661 -2.79156,-1.943661 -0.32272,0 0.52365,0.950971 1.87955,2.116681 3.78209,3.24618 4.22139,4.13979 2.38202,4.84688 -0.64144,0.24541 -1.47768,-0.0948 -2.11667,-0.86293 a 14.987598,14.987598 0 0 0 -2.35933,-2.19367 c -0.78041,-0.55218 -0.5847,-0.13621 0.48838,1.04085 1.72922,1.89673 2.23937,3.509385 1.38043,4.368025 -0.2267,0.2267 -0.98165,-0.31259 -1.67892,-1.19822 a 9.4848547,9.4848547 0 0 0 -2.68174,-2.294295 c -1.41111,-0.68256 -1.41111,-0.68133 -0.0982,0.49266 a 24.521229,24.521229 0 0 1 2.86703,3.370115 l 1.55008,2.193375 -2.33509,2.20318 c -1.28443,1.21173 -2.79432,2.20319 -3.35571,2.20319 -1.43657,0 -1.27154,0.59205 0.56813,2.03906 a 11.076349,11.076349 0 0 1 2.50719,3.02471 c 0.50524,0.97642 1.38443,2.65443 1.9541,3.72902 a 38.829036,38.829036 0 0 1 1.80223,4.06279 c 0.46015,1.26479 1.06234,1.93723 1.50529,1.68046 0.40616,-0.2356 1.94489,-1.24454 3.41889,-2.24214 z m 9.96984,-0.83348 c -0.0306,-0.41168 -0.19019,-0.36812 -0.38007,0.10098 a 1.4454748,1.4454748 0 0 1 -1.2513,0.81416 1.0123232,1.0123232 0 0 0 -0.92275,1.07797 c 0,0.96938 0.1313,0.95925 1.30284,-0.10099 0.71599,-0.65065 1.28012,-1.50222 1.24945,-1.89457 z m -93.52269,0.91324 c -0.67488,-0.62365 -14.63575,-7.81943 -15.15204,-7.80931 -0.61598,0.0117 11.56014,7.03319 12.97615,7.48229 0.71845,0.22794 1.30651,0.70556 1.30651,1.0605 0,0.35492 0.31874,0.4491 0.70802,0.20829 0.38929,-0.24082 0.4626,-0.66446 0.1629,-0.94177 z m 31.93144,-3.98579 c 1.48719,-0.67765 3.02194,-3.02102 3.02194,-4.61405 0,-0.39726 0.73286,-1.68292 1.62829,-2.8569 0.89545,-1.17399 1.6283,-2.41055 1.6283,-2.74769 0,-1.33074 3.4554,-6.71969 3.87444,-6.043265 0.25645,0.41505 1.05466,-0.37824 1.90746,-1.895815 0.80649,-1.43505 1.30866,-2.60903 1.11571,-2.60903 -0.19296,0 -0.8565,0.9525 -1.47462,2.11668 -0.8522,1.60529 -1.18196,1.84426 -1.36479,0.989 -0.13253,-0.62027 0.21902,-1.78475 0.78132,-2.58756 1.24976,-1.78414 1.29332,-2.47252 0.15707,-2.47252 -1.51941,0 -6.48469,3.7232 -11.18463,8.38604 -6.47273,6.42119 -6.83932,6.87152 -6.83932,8.40227 0,0.75495 -0.29295,1.55377 -0.65126,1.77494 -0.3583,0.22119 -0.65126,1.05957 -0.65126,1.86206 0,0.8025 -0.32855,1.78814 -0.7301,2.19 -0.53929,0.53929 -0.0289,0.63623 1.95409,0.37027 1.82495,-0.24542 2.68419,-0.11536 2.68419,0.40462 0,0.42058 0.36628,1.16049 0.81416,1.64426 0.67702,0.73133 0.89329,0.67089 1.28349,-0.35861 0.2583,-0.68101 1.17859,-1.56112 2.0452,-1.95593 z m -45.50425,0.72856 a 1.5148036,1.5148036 0 0 0 -1.17829,-0.64144 c -0.46627,0.006 -0.3856,0.26197 0.20124,0.64144 1.2513,0.80863 1.47676,0.80863 0.97705,0 z m -3.06549,-1.99213 a 1.5190983,1.5190983 0 0 1 -0.75281,-1.77126 c 0.29787,-0.92889 0.24357,-0.95772 -0.31535,-0.16749 -0.74298,1.05067 0.14019,2.64278 1.4467,2.6075 0.40401,-0.0104 0.23376,-0.31168 -0.37824,-0.66844 z m 62.20264,-0.77611 c 1.14976,-0.80618 3.45019,-2.56456 5.11193,-3.90788 1.66175,-1.34332 3.49374,-2.44246 4.07108,-2.44246 0.57732,0 1.04944,-0.24817 1.04944,-0.55218 0,-0.304 1.07797,-1.66143 2.39553,-3.01794 2.16298,-2.22742 2.28937,-2.544005 1.30282,-3.265515 -0.60095,-0.4396 -1.09269,-1.18197 -1.09269,-1.650095 0,-1.2924 -0.6666,-0.35585 -1.71789,2.411785 l -0.94483,2.490935 0.34541,-2.668855 c 0.18989,-1.46787 1.08197,-4.333975 1.98202,-6.369055 0.90003,-2.03507 1.63658,-4.076291 1.63658,-4.535511 0,-0.45923 0.76078,-2.72254 1.69088,-5.03094 0.93012,-2.30841 1.93263,-5.07358 2.23141,-6.14848 0.2988,-1.07491 1.59978,-4.88523 2.89433,-8.46671 1.29455,-3.58147 2.92163,-8.21608 3.61583,-10.29686 1.58076,-4.738284 1.96176,-5.383098 2.58542,-4.373842 0.27608,0.446031 0.4853,-0.0093 0.49389,-1.070311 0.008,-1.015077 0.61598,-3.891913 1.34976,-6.39328 0.73378,-2.501356 1.22706,-4.658211 1.09055,-4.793505 -0.62427,-0.623956 -4.27201,2.77898 -4.6481,4.336425 -0.49451,2.047348 -2.94494,6.861409 -3.6505,7.175845 -0.26873,0.119328 -0.48867,0.632235 -0.48867,1.139622 0,0.5074 -0.70955,2.314851 -1.57677,4.016466 -3.53884,6.94454 -8.84495,18.38135 -8.84495,19.06512 0,0.40187 -0.86293,2.39552 -1.91728,4.42999 -1.05435,2.03446 -2.71057,5.45796 -3.68117,7.60776 -0.97061,2.149811 -2.56118,5.520241 -3.53699,7.490571 -0.97582,1.970365 -1.95011,4.33429 -2.16423,5.25367 a 9.0102899,9.0102899 0 0 1 -1.70807,3.19373 c -0.72611,0.83747 -1.31909,2.02709 -1.31909,2.644 0,1.5645 0.75771,5.1926 1.08472,5.1926 0.14878,0 1.21142,-0.65954 2.36209,-1.46541 z m 42.59274,-5.23648 c 0.26566,-0.42946 0,-0.5215 -0.71476,-0.24694 a 6.5426754,6.5426754 0 0 1 -1.73537,0.43622 0.59604362,0.59604362 0 0 0 -0.59819,0.59021 c 0,0.75802 2.49154,0.12056 3.04801,-0.77979 z m -47.34022,-4.37108 c 0.38345,-0.7166 0.55217,-1.30283 0.37149,-1.30283 -0.18069,0 -0.6393,0.58623 -1.02276,1.30283 -0.38345,0.7166 -0.55064,1.30344 -0.37149,1.30344 0.17916,0 0.6393,-0.58715 1.02276,-1.30344 z m 31.26484,-3.908195 a 0.67488212,0.67488212 0 0 0 -0.68992,-0.65126 c -0.37947,0 -0.50862,0.29296 -0.28713,0.65126 0.51567,0.83472 0.97705,0.83472 0.97705,0 z m -9.02656,-3.307845 c 0.49359,-1.64732 0.56077,-2.82223 0.17731,-3.09403 -0.71506,-0.50554 -0.76384,-6.181001 -0.074,-8.579281 0.8436,-2.93236 -1.25774,2.00962 -2.35565,5.53648 -1.73015,5.563801 -1.9771,7.595801 -1.00374,8.214246 1.68261,1.06631 2.46333,0.56813 3.2557,-2.076805 z m 5.92455,-5.426671 c 2.88358,-3.15414 3.3106,-4.56527 0.51874,-1.70959 -2.12619,2.174961 -2.62745,2.392761 -2.62745,1.14146 0,-0.46014 -0.73286,-0.89575 -1.62829,-0.96967 -1.23627,-0.10249 -1.62831,0.17731 -1.62831,1.16079 0,0.712621 0.32732,1.295481 0.72733,1.295481 0.70771,0 0.58285,1.49976 -0.35461,4.23335 -0.30677,0.89759 0.0209,0.71322 1.05619,-0.59268 0.8258,-1.04299 2.59737,-3.09372 3.9364,-4.559141 z m -22.06496,-0.0586 1.14423,-1.95408 -1.34149,1.5378 c -0.73623,0.845761 -1.34148,1.847341 -1.34148,2.225581 0,0.80096 0.0326,0.76262 1.53843,-1.809911 z m 26.46979,1.628311 a 3.913396,3.913396 0 0 0 -1.62861,-0.6304 c -0.3583,0 -0.21166,0.28407 0.32579,0.63132 a 3.913396,3.913396 0 0 0 1.62829,0.6304 c 0.35831,0 0.21168,-0.28406 -0.32547,-0.63132 z m -24.22551,-5.552441 c -0.20062,-0.20063 -0.56475,0.16106 -0.80924,0.80342 -0.35339,0.92827 -0.27854,1.00312 0.36474,0.36475 0.44512,-0.44174 0.64421,-0.96754 0.44482,-1.16786 z m 23.97304,-3.91278 c 0.52979,-0.80863 1.12276,-2.60044 1.31909,-3.98211 0.19633,-1.38167 1.09116,-4.80179 1.99151,-7.60101 0.90037,-2.79923 1.53383,-5.18893 1.40714,-5.3104 -0.1267,-0.12149 -1.07,-0.32272 -2.09644,-0.44726 -1.76696,-0.21474 -1.94366,0 -3.31887,4.00756 -2.76089,8.05074 -5.59785,17.2641 -5.58005,18.12979 0.0218,1.05189 4.87755,-2.6575 6.27885,-4.79719 z m -22.54474,0.99729 c 0.38346,-0.7166 0.55064,-1.30282 0.37149,-1.30282 -0.17914,0 -0.6393,0.58622 -1.02275,1.30282 -0.38346,0.71661 -0.55065,1.30345 -0.37149,1.30345 0.17915,0 0.63929,-0.58623 1.02275,-1.30284 z m 16.23767,-10.01617 c -0.0546,-0.866 -2.18202,3.77658 -2.80045,6.11106 -0.23683,0.89422 0.30676,0.0494 1.20802,-1.8774 0.90128,-1.92679 1.61789,-3.83211 1.59273,-4.23335 z m -12.98105,3.50295 c 0.38345,-0.71661 0.55217,-1.30284 0.37149,-1.30284 -0.18069,0 -0.63961,0.58623 -1.02275,1.30284 -0.38316,0.7166 -0.55065,1.30282 -0.3715,1.30282 0.17915,0 0.6393,-0.58622 1.02276,-1.30282 z m 5.27634,-10.09593 q 0.6709,-1.29793 -0.65862,0.32577 c -0.73255,0.89577 -1.33381,1.92158 -1.33657,2.27989 -0.005,0.69696 0.89697,-0.4807 1.99396,-2.60536 z m 9.68487,0.65126 c 0,-0.35831 -0.28406,-0.21168 -0.63132,0.32578 a 3.9140095,3.9140095 0 0 0 -0.63163,1.628 c 0,0.3583 0.28407,0.21167 0.63132,-0.32578 a 3.913396,3.913396 0 0 0 0.63163,-1.6277 z m 1.9277,-4.55944 c 0,-0.35831 -0.41903,0.0813 -0.93071,0.97704 -0.51169,0.89576 -0.93073,1.92157 -0.93073,2.27988 0,0.3583 0.41904,-0.0813 0.93073,-0.97705 0.51168,-0.89575 0.93071,-1.92127 0.93071,-2.27957 z m 7.74704,-0.48837 c 3.14525,-10.45454 6.62919,-23.004588 6.62919,-23.881009 0,-0.509545 -0.64421,-0.334692 -1.79121,0.485915 -1.3292,0.95096 -2.28201,2.769461 -3.69313,7.046372 -1.04607,3.170414 -2.5848,7.761146 -3.4195,10.199626 -1.95195,5.705826 -1.9633,7.438116 -0.0522,7.805926 a 11.570854,11.570854 0 0 1 1.57799,0.37087 c 0.0613,0.0488 0.3988,-0.86384 0.74913,-2.02832 z M 186.51394,55.51809 c 0.2224,-0.579782 0.11316,-0.841152 -0.25584,-0.613533 a 1.3859625,1.3859625 0 0 0 -0.64421,1.012329 c 0,0.93685 0.4669,0.730403 0.89975,-0.398796 z m 1.95409,-2.605356 c 0.2224,-0.579783 0.11316,-0.841152 -0.25585,-0.613522 a 1.3859625,1.3859625 0 0 0 -0.6442,1.012318 c 0,0.936862 0.46659,0.730403 0.90005,-0.398182 z m 7.96115,-0.766914 c -0.21627,-0.216569 -0.37026,0.168418 -0.34204,0.85496 0.0307,0.758937 0.1856,0.913233 0.39358,0.393579 0.18804,-0.469347 0.16473,-1.031344 -0.0516,-1.247611 z m -1.74855,-11.900619 c 0.73132,-1.535357 0.71752,-1.556215 -0.23744,-0.364129 -0.55708,0.695435 -1.01232,1.550383 -1.01232,1.899788 0,0.82827 0.30093,0.458008 1.25037,-1.535659 z"
       inkscape:connector-curvature="0"
       style="stroke-width:0.30676457" />
  </g>
</svg>
